<svg width="1390" height="618" viewBox="0 0 1390 618" fill="none" xmlns="http://www.w3.org/2000/svg">
<path d="M39.2917 481.432C38.0457 481.432 36.9537 481.096 36.0157 480.424C35.0777 479.752 34.3427 478.807 33.8107 477.589C33.2927 476.371 33.0337 474.957 33.0337 473.347C33.0337 471.723 33.2927 470.309 33.8107 469.105C34.3287 467.901 35.0567 466.963 35.9947 466.291C36.9327 465.619 38.0247 465.283 39.2707 465.283C40.5447 465.283 41.6437 465.619 42.5677 466.291C43.5057 466.963 44.2407 467.908 44.7727 469.126C45.3047 470.33 45.5707 471.737 45.5707 473.347C45.5707 474.957 45.3047 476.371 44.7727 477.589C44.2547 478.793 43.5267 479.738 42.5887 480.424C41.6507 481.096 40.5517 481.432 39.2917 481.432ZM39.3127 478.828C40.0267 478.828 40.6357 478.611 41.1397 478.177C41.6437 477.729 42.0287 477.099 42.2947 476.287C42.5747 475.461 42.7147 474.481 42.7147 473.347C42.7147 472.213 42.5747 471.24 42.2947 470.428C42.0287 469.602 41.6367 468.972 41.1187 468.538C40.6147 468.104 39.9987 467.887 39.2707 467.887C38.5707 467.887 37.9687 468.104 37.4647 468.538C36.9607 468.972 36.5687 469.602 36.2887 470.428C36.0227 471.24 35.8897 472.213 35.8897 473.347C35.8897 474.467 36.0227 475.44 36.2887 476.266C36.5687 477.078 36.9607 477.708 37.4647 478.156C37.9827 478.604 38.5987 478.828 39.3127 478.828Z" fill="#484848"/>
<path d="M100.499 486.787H97.731V0H100.499V486.787Z" fill="#D6D6D6"/>
<path d="M280.063 617.526L287.503 602.406H279.079V599.646H290.935V602.406L283.663 617.526H280.063Z" fill="#484848"/>
<path d="M272.807 617.526V602.43H269.351V599.646H276.071V617.526H272.807Z" fill="#484848"/>
<path d="M260.159 617.814C258.735 617.814 257.487 617.43 256.415 616.662C255.343 615.894 254.503 614.814 253.895 613.422C253.303 612.03 253.007 610.414 253.007 608.574C253.007 606.718 253.303 605.102 253.895 603.726C254.487 602.35 255.319 601.278 256.391 600.51C257.463 599.742 258.711 599.358 260.135 599.358C261.591 599.358 262.847 599.742 263.903 600.51C264.975 601.278 265.815 602.358 266.423 603.75C267.031 605.126 267.335 606.734 267.335 608.574C267.335 610.414 267.031 612.03 266.423 613.422C265.831 614.798 264.999 615.878 263.927 616.662C262.855 617.43 261.599 617.814 260.159 617.814ZM260.183 614.838C260.999 614.838 261.695 614.59 262.271 614.094C262.847 613.582 263.287 612.862 263.591 611.934C263.911 610.99 264.071 609.87 264.071 608.574C264.071 607.278 263.911 606.166 263.591 605.238C263.287 604.294 262.839 603.574 262.247 603.078C261.671 602.582 260.967 602.334 260.135 602.334C259.335 602.334 258.647 602.582 258.071 603.078C257.495 603.574 257.047 604.294 256.727 605.238C256.423 606.166 256.271 607.278 256.271 608.574C256.271 609.854 256.423 610.966 256.727 611.91C257.047 612.838 257.495 613.558 258.071 614.07C258.663 614.582 259.367 614.838 260.183 614.838Z" fill="#484848"/>
<path d="M238.447 617.526V615.054L243.295 609.99C244.255 608.982 244.991 608.182 245.503 607.59C246.031 606.982 246.399 606.462 246.607 606.03C246.815 605.598 246.919 605.158 246.919 604.71C246.919 603.958 246.679 603.366 246.199 602.934C245.735 602.502 245.135 602.286 244.399 602.286C243.631 602.286 242.967 602.51 242.407 602.958C241.847 603.39 241.439 604.03 241.183 604.878L238.327 603.99C238.519 603.046 238.911 602.23 239.503 601.542C240.095 600.838 240.815 600.302 241.663 599.934C242.527 599.55 243.439 599.358 244.399 599.358C245.551 599.358 246.559 599.566 247.423 599.982C248.303 600.398 248.983 600.982 249.463 601.734C249.959 602.486 250.207 603.366 250.207 604.374C250.207 605.014 250.087 605.646 249.847 606.27C249.607 606.894 249.247 607.534 248.767 608.19C248.287 608.83 247.663 609.55 246.895 610.35L242.695 614.766H250.447V617.526H238.447Z" fill="#484848"/>
<path d="M473.376 617.814C472.08 617.814 470.952 617.574 469.992 617.094C469.048 616.598 468.312 615.934 467.784 615.102C467.272 614.27 467.016 613.358 467.016 612.366C467.016 611.198 467.328 610.214 467.952 609.414C468.576 608.598 469.48 607.998 470.664 607.614L470.472 608.406C469.624 608.134 468.952 607.606 468.456 606.822C467.976 606.038 467.736 605.174 467.736 604.23C467.736 603.286 467.976 602.446 468.456 601.71C468.936 600.974 469.6 600.398 470.448 599.982C471.296 599.566 472.272 599.358 473.376 599.358C474.464 599.358 475.424 599.566 476.256 599.982C477.104 600.398 477.768 600.974 478.248 601.71C478.744 602.446 478.992 603.286 478.992 604.23C478.992 605.19 478.744 606.062 478.248 606.846C477.768 607.614 477.104 608.142 476.256 608.43L476.088 607.59C477.272 608.006 478.176 608.622 478.8 609.438C479.424 610.238 479.736 611.222 479.736 612.39C479.736 613.382 479.472 614.294 478.944 615.126C478.432 615.942 477.696 616.598 476.736 617.094C475.792 617.574 474.672 617.814 473.376 617.814ZM473.376 615.054C474 615.054 474.544 614.942 475.008 614.718C475.472 614.478 475.832 614.15 476.088 613.734C476.344 613.302 476.472 612.814 476.472 612.27C476.472 611.71 476.344 611.23 476.088 610.83C475.832 610.414 475.472 610.094 475.008 609.87C474.544 609.63 474 609.51 473.376 609.51C472.752 609.51 472.208 609.63 471.744 609.87C471.296 610.094 470.944 610.414 470.688 610.83C470.432 611.23 470.304 611.71 470.304 612.27C470.304 612.814 470.432 613.302 470.688 613.734C470.944 614.15 471.296 614.478 471.744 614.718C472.208 614.942 472.752 615.054 473.376 615.054ZM473.376 606.75C473.84 606.75 474.248 606.646 474.6 606.438C474.952 606.23 475.224 605.958 475.416 605.622C475.624 605.27 475.728 604.87 475.728 604.422C475.728 603.974 475.624 603.582 475.416 603.246C475.224 602.894 474.952 602.622 474.6 602.43C474.248 602.222 473.84 602.118 473.376 602.118C472.912 602.118 472.496 602.222 472.128 602.43C471.776 602.622 471.496 602.894 471.288 603.246C471.096 603.582 471 603.974 471 604.422C471 604.87 471.096 605.27 471.288 605.622C471.496 605.958 471.776 606.23 472.128 606.438C472.496 606.646 472.912 606.75 473.376 606.75Z" fill="#484848"/>
<path d="M460.264 617.526V602.43H456.808V599.646H463.528V617.526H460.264Z" fill="#484848"/>
<path d="M447.616 617.814C446.192 617.814 444.944 617.43 443.872 616.662C442.8 615.894 441.96 614.814 441.352 613.422C440.76 612.03 440.464 610.414 440.464 608.574C440.464 606.718 440.76 605.102 441.352 603.726C441.944 602.35 442.776 601.278 443.848 600.51C444.92 599.742 446.168 599.358 447.592 599.358C449.048 599.358 450.304 599.742 451.36 600.51C452.432 601.278 453.272 602.358 453.88 603.75C454.488 605.126 454.792 606.734 454.792 608.574C454.792 610.414 454.488 612.03 453.88 613.422C453.288 614.798 452.456 615.878 451.384 616.662C450.312 617.43 449.056 617.814 447.616 617.814ZM447.64 614.838C448.456 614.838 449.152 614.59 449.728 614.094C450.304 613.582 450.744 612.862 451.048 611.934C451.368 610.99 451.528 609.87 451.528 608.574C451.528 607.278 451.368 606.166 451.048 605.238C450.744 604.294 450.296 603.574 449.704 603.078C449.128 602.582 448.424 602.334 447.592 602.334C446.792 602.334 446.104 602.582 445.528 603.078C444.952 603.574 444.504 604.294 444.184 605.238C443.88 606.166 443.728 607.278 443.728 608.574C443.728 609.854 443.88 610.966 444.184 611.91C444.504 612.838 444.952 613.558 445.528 614.07C446.12 614.582 446.824 614.838 447.64 614.838Z" fill="#484848"/>
<path d="M425.904 617.526V615.054L430.752 609.99C431.712 608.982 432.448 608.182 432.96 607.59C433.488 606.982 433.856 606.462 434.064 606.03C434.272 605.598 434.376 605.158 434.376 604.71C434.376 603.958 434.136 603.366 433.656 602.934C433.192 602.502 432.592 602.286 431.856 602.286C431.088 602.286 430.424 602.51 429.864 602.958C429.304 603.39 428.896 604.03 428.64 604.878L425.784 603.99C425.976 603.046 426.368 602.23 426.96 601.542C427.552 600.838 428.272 600.302 429.12 599.934C429.984 599.55 430.896 599.358 431.856 599.358C433.008 599.358 434.016 599.566 434.88 599.982C435.76 600.398 436.44 600.982 436.92 601.734C437.416 602.486 437.664 603.366 437.664 604.374C437.664 605.014 437.544 605.646 437.304 606.27C437.064 606.894 436.704 607.534 436.224 608.19C435.744 608.83 435.12 609.55 434.352 610.35L430.152 614.766H437.904V617.526H425.904Z" fill="#484848"/>
<path d="M664.968 617.526L671.04 609.702L671.592 610.278C671.352 610.454 671.12 610.598 670.896 610.71C670.672 610.822 670.432 610.902 670.176 610.95C669.92 610.998 669.648 611.022 669.36 611.022C668.272 611.022 667.304 610.774 666.456 610.278C665.608 609.782 664.936 609.11 664.44 608.262C663.96 607.398 663.72 606.422 663.72 605.334C663.72 604.182 663.984 603.158 664.512 602.262C665.056 601.366 665.792 600.662 666.72 600.15C667.664 599.622 668.736 599.358 669.936 599.358C671.152 599.358 672.224 599.614 673.152 600.126C674.08 600.638 674.808 601.342 675.336 602.238C675.88 603.118 676.152 604.134 676.152 605.286C676.152 605.862 676.088 606.438 675.96 607.014C675.832 607.59 675.6 608.206 675.264 608.862C674.944 609.502 674.48 610.23 673.872 611.046L668.88 617.526H664.968ZM669.936 608.286C670.496 608.286 670.992 608.166 671.424 607.926C671.872 607.67 672.224 607.318 672.48 606.87C672.736 606.406 672.864 605.886 672.864 605.31C672.864 604.702 672.728 604.174 672.456 603.726C672.2 603.278 671.856 602.926 671.424 602.67C670.992 602.414 670.496 602.286 669.936 602.286C669.392 602.286 668.896 602.414 668.448 602.67C668 602.926 667.64 603.278 667.368 603.726C667.112 604.174 666.984 604.702 666.984 605.31C666.984 605.886 667.112 606.406 667.368 606.87C667.64 607.318 668 607.67 668.448 607.926C668.896 608.166 669.392 608.286 669.936 608.286Z" fill="#484848"/>
<path d="M657.185 617.526V602.43H653.729V599.646H660.449V617.526H657.185Z" fill="#484848"/>
<path d="M644.536 617.814C643.112 617.814 641.864 617.43 640.792 616.662C639.72 615.894 638.88 614.814 638.272 613.422C637.68 612.03 637.384 610.414 637.384 608.574C637.384 606.718 637.68 605.102 638.272 603.726C638.864 602.35 639.696 601.278 640.768 600.51C641.84 599.742 643.088 599.358 644.512 599.358C645.968 599.358 647.224 599.742 648.28 600.51C649.352 601.278 650.192 602.358 650.8 603.75C651.408 605.126 651.712 606.734 651.712 608.574C651.712 610.414 651.408 612.03 650.8 613.422C650.208 614.798 649.376 615.878 648.304 616.662C647.232 617.43 645.976 617.814 644.536 617.814ZM644.56 614.838C645.376 614.838 646.072 614.59 646.648 614.094C647.224 613.582 647.664 612.862 647.968 611.934C648.288 610.99 648.448 609.87 648.448 608.574C648.448 607.278 648.288 606.166 647.968 605.238C647.664 604.294 647.216 603.574 646.624 603.078C646.048 602.582 645.344 602.334 644.512 602.334C643.712 602.334 643.024 602.582 642.448 603.078C641.872 603.574 641.424 604.294 641.104 605.238C640.8 606.166 640.648 607.278 640.648 608.574C640.648 609.854 640.8 610.966 641.104 611.91C641.424 612.838 641.872 613.558 642.448 614.07C643.04 614.582 643.744 614.838 644.56 614.838Z" fill="#484848"/>
<path d="M622.824 617.526V615.054L627.672 609.99C628.632 608.982 629.368 608.182 629.88 607.59C630.408 606.982 630.776 606.462 630.984 606.03C631.192 605.598 631.296 605.158 631.296 604.71C631.296 603.958 631.056 603.366 630.576 602.934C630.112 602.502 629.512 602.286 628.776 602.286C628.008 602.286 627.344 602.51 626.784 602.958C626.224 603.39 625.816 604.03 625.56 604.878L622.704 603.99C622.896 603.046 623.288 602.23 623.88 601.542C624.472 600.838 625.192 600.302 626.04 599.934C626.904 599.55 627.816 599.358 628.776 599.358C629.928 599.358 630.936 599.566 631.8 599.982C632.68 600.398 633.36 600.982 633.84 601.734C634.336 602.486 634.584 603.366 634.584 604.374C634.584 605.014 634.464 605.646 634.224 606.27C633.984 606.894 633.624 607.534 633.144 608.19C632.664 608.83 632.04 609.55 631.272 610.35L627.072 614.766H634.824V617.526H622.824Z" fill="#484848"/>
<path d="M1061.23 617.526V615.054L1066.08 609.99C1067.04 608.982 1067.78 608.182 1068.29 607.59C1068.82 606.982 1069.18 606.462 1069.39 606.03C1069.6 605.598 1069.7 605.158 1069.7 604.71C1069.7 603.958 1069.46 603.366 1068.98 602.934C1068.52 602.502 1067.92 602.286 1067.18 602.286C1066.42 602.286 1065.75 602.51 1065.19 602.958C1064.63 603.39 1064.22 604.03 1063.97 604.878L1061.11 603.99C1061.3 603.046 1061.7 602.23 1062.29 601.542C1062.88 600.838 1063.6 600.302 1064.45 599.934C1065.31 599.55 1066.22 599.358 1067.18 599.358C1068.34 599.358 1069.34 599.566 1070.21 599.982C1071.09 600.398 1071.77 600.982 1072.25 601.734C1072.74 602.486 1072.99 603.366 1072.99 604.374C1072.99 605.014 1072.87 605.646 1072.63 606.27C1072.39 606.894 1072.03 607.534 1071.55 608.19C1071.07 608.83 1070.45 609.55 1069.68 610.35L1065.48 614.766H1073.23V617.526H1061.23Z" fill="#484848"/>
<path d="M1046.91 617.526V615.054L1051.76 609.99C1052.72 608.982 1053.46 608.182 1053.97 607.59C1054.5 606.982 1054.86 606.462 1055.07 606.03C1055.28 605.598 1055.38 605.158 1055.38 604.71C1055.38 603.958 1055.14 603.366 1054.66 602.934C1054.2 602.502 1053.6 602.286 1052.86 602.286C1052.1 602.286 1051.43 602.51 1050.87 602.958C1050.31 603.39 1049.9 604.03 1049.65 604.878L1046.79 603.99C1046.98 603.046 1047.38 602.23 1047.97 601.542C1048.56 600.838 1049.28 600.302 1050.13 599.934C1050.99 599.55 1051.9 599.358 1052.86 599.358C1054.02 599.358 1055.02 599.566 1055.89 599.982C1056.77 600.398 1057.45 600.982 1057.93 601.734C1058.42 602.486 1058.67 603.366 1058.67 604.374C1058.67 605.014 1058.55 605.646 1058.31 606.27C1058.07 606.894 1057.71 607.534 1057.23 608.19C1056.75 608.83 1056.13 609.55 1055.36 610.35L1051.16 614.766H1058.91V617.526H1046.91Z" fill="#484848"/>
<path d="M1037.31 617.814C1035.89 617.814 1034.64 617.43 1033.57 616.662C1032.5 615.894 1031.66 614.814 1031.05 613.422C1030.46 612.03 1030.16 610.414 1030.16 608.574C1030.16 606.718 1030.46 605.102 1031.05 603.726C1031.64 602.35 1032.47 601.278 1033.54 600.51C1034.62 599.742 1035.86 599.358 1037.29 599.358C1038.74 599.358 1040 599.742 1041.06 600.51C1042.13 601.278 1042.97 602.358 1043.58 603.75C1044.18 605.126 1044.49 606.734 1044.49 608.574C1044.49 610.414 1044.18 612.03 1043.58 613.422C1042.98 614.798 1042.15 615.878 1041.08 616.662C1040.01 617.43 1038.75 617.814 1037.31 617.814ZM1037.34 614.838C1038.15 614.838 1038.85 614.59 1039.42 614.094C1040 613.582 1040.44 612.862 1040.74 611.934C1041.06 610.99 1041.22 609.87 1041.22 608.574C1041.22 607.278 1041.06 606.166 1040.74 605.238C1040.44 604.294 1039.99 603.574 1039.4 603.078C1038.82 602.582 1038.12 602.334 1037.29 602.334C1036.49 602.334 1035.8 602.582 1035.22 603.078C1034.65 603.574 1034.2 604.294 1033.88 605.238C1033.58 606.166 1033.42 607.278 1033.42 608.574C1033.42 609.854 1033.58 610.966 1033.88 611.91C1034.2 612.838 1034.65 613.558 1035.22 614.07C1035.82 614.582 1036.52 614.838 1037.34 614.838Z" fill="#484848"/>
<path d="M1015.6 617.526V615.054L1020.45 609.99C1021.41 608.982 1022.14 608.182 1022.66 607.59C1023.18 606.982 1023.55 606.462 1023.76 606.03C1023.97 605.598 1024.07 605.158 1024.07 604.71C1024.07 603.958 1023.83 603.366 1023.35 602.934C1022.89 602.502 1022.29 602.286 1021.55 602.286C1020.78 602.286 1020.12 602.51 1019.56 602.958C1019 603.39 1018.59 604.03 1018.34 604.878L1015.48 603.99C1015.67 603.046 1016.06 602.23 1016.66 601.542C1017.25 600.838 1017.97 600.302 1018.82 599.934C1019.68 599.55 1020.59 599.358 1021.55 599.358C1022.7 599.358 1023.71 599.566 1024.58 599.982C1025.46 600.398 1026.14 600.982 1026.62 601.734C1027.11 602.486 1027.36 603.366 1027.36 604.374C1027.36 605.014 1027.24 605.646 1027 606.27C1026.76 606.894 1026.4 607.534 1025.92 608.19C1025.44 608.83 1024.82 609.55 1024.05 610.35L1019.85 614.766H1027.6V617.526H1015.6Z" fill="#484848"/>
<path d="M1266.49 617.814C1265.51 617.814 1264.58 617.638 1263.7 617.286C1262.84 616.918 1262.09 616.406 1261.47 615.75C1260.86 615.078 1260.45 614.286 1260.22 613.374L1263.08 612.366C1263.37 613.182 1263.81 613.806 1264.4 614.238C1264.99 614.654 1265.69 614.862 1266.49 614.862C1267.13 614.862 1267.68 614.742 1268.14 614.502C1268.62 614.262 1269 613.918 1269.27 613.47C1269.54 613.006 1269.68 612.462 1269.68 611.838C1269.68 611.214 1269.54 610.686 1269.27 610.254C1269.01 609.806 1268.65 609.462 1268.17 609.222C1267.69 608.982 1267.12 608.862 1266.46 608.862C1266.16 608.862 1265.84 608.894 1265.5 608.958C1265.18 609.022 1264.89 609.118 1264.64 609.246L1263.89 607.686L1268.53 602.406H1261.23V599.646H1272.2V602.214L1267.54 607.662L1267.59 606.438C1268.66 606.454 1269.6 606.686 1270.4 607.134C1271.2 607.582 1271.82 608.198 1272.27 608.982C1272.72 609.766 1272.94 610.686 1272.94 611.742C1272.94 612.894 1272.66 613.934 1272.1 614.862C1271.54 615.774 1270.77 616.494 1269.8 617.022C1268.82 617.55 1267.72 617.814 1266.49 617.814Z" fill="#484848"/>
<path d="M1246.24 617.526V615.054L1251.09 609.99C1252.05 608.982 1252.78 608.182 1253.29 607.59C1253.82 606.982 1254.19 606.462 1254.4 606.03C1254.61 605.598 1254.71 605.158 1254.71 604.71C1254.71 603.958 1254.47 603.366 1253.99 602.934C1253.53 602.502 1252.93 602.286 1252.19 602.286C1251.42 602.286 1250.76 602.51 1250.2 602.958C1249.64 603.39 1249.23 604.03 1248.97 604.878L1246.12 603.99C1246.31 603.046 1246.7 602.23 1247.29 601.542C1247.89 600.838 1248.61 600.302 1249.45 599.934C1250.32 599.55 1251.23 599.358 1252.19 599.358C1253.34 599.358 1254.35 599.566 1255.21 599.982C1256.09 600.398 1256.77 600.982 1257.25 601.734C1257.75 602.486 1258 603.366 1258 604.374C1258 605.014 1257.88 605.646 1257.64 606.27C1257.4 606.894 1257.04 607.534 1256.56 608.19C1256.08 608.83 1255.45 609.55 1254.69 610.35L1250.49 614.766H1258.24V617.526H1246.24Z" fill="#484848"/>
<path d="M1236.64 617.814C1235.21 617.814 1233.97 617.43 1232.89 616.662C1231.82 615.894 1230.98 614.814 1230.37 613.422C1229.78 612.03 1229.49 610.414 1229.49 608.574C1229.49 606.718 1229.78 605.102 1230.37 603.726C1230.97 602.35 1231.8 601.278 1232.87 600.51C1233.94 599.742 1235.19 599.358 1236.61 599.358C1238.07 599.358 1239.33 599.742 1240.38 600.51C1241.45 601.278 1242.29 602.358 1242.9 603.75C1243.51 605.126 1243.81 606.734 1243.81 608.574C1243.81 610.414 1243.51 612.03 1242.9 613.422C1242.31 614.798 1241.48 615.878 1240.41 616.662C1239.33 617.43 1238.08 617.814 1236.64 617.814ZM1236.66 614.838C1237.48 614.838 1238.17 614.59 1238.75 614.094C1239.33 613.582 1239.77 612.862 1240.07 611.934C1240.39 610.99 1240.55 609.87 1240.55 608.574C1240.55 607.278 1240.39 606.166 1240.07 605.238C1239.77 604.294 1239.32 603.574 1238.73 603.078C1238.15 602.582 1237.45 602.334 1236.61 602.334C1235.81 602.334 1235.13 602.582 1234.55 603.078C1233.97 603.574 1233.53 604.294 1233.21 605.238C1232.9 606.166 1232.75 607.278 1232.75 608.574C1232.75 609.854 1232.9 610.966 1233.21 611.91C1233.53 612.838 1233.97 613.558 1234.55 614.07C1235.14 614.582 1235.85 614.838 1236.66 614.838Z" fill="#484848"/>
<path d="M1214.93 617.526V615.054L1219.77 609.99C1220.73 608.982 1221.47 608.182 1221.98 607.59C1222.51 606.982 1222.88 606.462 1223.09 606.03C1223.29 605.598 1223.4 605.158 1223.4 604.71C1223.4 603.958 1223.16 603.366 1222.68 602.934C1222.21 602.502 1221.61 602.286 1220.88 602.286C1220.11 602.286 1219.45 602.51 1218.89 602.958C1218.33 603.39 1217.92 604.03 1217.66 604.878L1214.81 603.99C1215 603.046 1215.39 602.23 1215.98 601.542C1216.57 600.838 1217.29 600.302 1218.14 599.934C1219.01 599.55 1219.92 599.358 1220.88 599.358C1222.03 599.358 1223.04 599.566 1223.9 599.982C1224.78 600.398 1225.46 600.982 1225.94 601.734C1226.44 602.486 1226.69 603.366 1226.69 604.374C1226.69 605.014 1226.57 605.646 1226.33 606.27C1226.09 606.894 1225.73 607.534 1225.25 608.19C1224.77 608.83 1224.14 609.55 1223.37 610.35L1219.17 614.766H1226.93V617.526H1214.93Z" fill="#484848"/>
<path d="M868.041 617.814C866.617 617.814 865.369 617.43 864.297 616.662C863.225 615.894 862.385 614.814 861.777 613.422C861.185 612.03 860.889 610.414 860.889 608.574C860.889 606.718 861.185 605.102 861.777 603.726C862.369 602.35 863.201 601.278 864.273 600.51C865.345 599.742 866.593 599.358 868.017 599.358C869.473 599.358 870.729 599.742 871.785 600.51C872.857 601.278 873.697 602.358 874.305 603.75C874.913 605.126 875.217 606.734 875.217 608.574C875.217 610.414 874.913 612.03 874.305 613.422C873.713 614.798 872.881 615.878 871.809 616.662C870.737 617.43 869.481 617.814 868.041 617.814ZM868.065 614.838C868.881 614.838 869.577 614.59 870.153 614.094C870.729 613.582 871.169 612.862 871.473 611.934C871.793 610.99 871.953 609.87 871.953 608.574C871.953 607.278 871.793 606.166 871.473 605.238C871.169 604.294 870.721 603.574 870.129 603.078C869.553 602.582 868.849 602.334 868.017 602.334C867.217 602.334 866.529 602.582 865.953 603.078C865.377 603.574 864.929 604.294 864.609 605.238C864.305 606.166 864.153 607.278 864.153 608.574C864.153 609.854 864.305 610.966 864.609 611.91C864.929 612.838 865.377 613.558 865.953 614.07C866.545 614.582 867.249 614.838 868.065 614.838Z" fill="#484848"/>
<path d="M846.328 617.526V615.054L851.176 609.99C852.136 608.982 852.872 608.182 853.384 607.59C853.912 606.982 854.28 606.462 854.488 606.03C854.696 605.598 854.8 605.158 854.8 604.71C854.8 603.958 854.56 603.366 854.08 602.934C853.616 602.502 853.016 602.286 852.28 602.286C851.512 602.286 850.848 602.51 850.288 602.958C849.728 603.39 849.32 604.03 849.064 604.878L846.208 603.99C846.4 603.046 846.792 602.23 847.384 601.542C847.976 600.838 848.696 600.302 849.544 599.934C850.408 599.55 851.32 599.358 852.28 599.358C853.432 599.358 854.44 599.566 855.304 599.982C856.184 600.398 856.864 600.982 857.344 601.734C857.84 602.486 858.088 603.366 858.088 604.374C858.088 605.014 857.968 605.646 857.728 606.27C857.488 606.894 857.128 607.534 856.648 608.19C856.168 608.83 855.544 609.55 854.776 610.35L850.576 614.766H858.328V617.526H846.328Z" fill="#484848"/>
<path d="M836.728 617.814C835.304 617.814 834.056 617.43 832.984 616.662C831.912 615.894 831.072 614.814 830.464 613.422C829.872 612.03 829.576 610.414 829.576 608.574C829.576 606.718 829.872 605.102 830.464 603.726C831.056 602.35 831.888 601.278 832.96 600.51C834.032 599.742 835.28 599.358 836.704 599.358C838.16 599.358 839.416 599.742 840.472 600.51C841.544 601.278 842.384 602.358 842.992 603.75C843.6 605.126 843.904 606.734 843.904 608.574C843.904 610.414 843.6 612.03 842.992 613.422C842.4 614.798 841.568 615.878 840.496 616.662C839.424 617.43 838.168 617.814 836.728 617.814ZM836.752 614.838C837.568 614.838 838.264 614.59 838.84 614.094C839.416 613.582 839.856 612.862 840.16 611.934C840.48 610.99 840.64 609.87 840.64 608.574C840.64 607.278 840.48 606.166 840.16 605.238C839.856 604.294 839.408 603.574 838.816 603.078C838.24 602.582 837.536 602.334 836.704 602.334C835.904 602.334 835.216 602.582 834.64 603.078C834.064 603.574 833.616 604.294 833.296 605.238C832.992 606.166 832.84 607.278 832.84 608.574C832.84 609.854 832.992 610.966 833.296 611.91C833.616 612.838 834.064 613.558 834.64 614.07C835.232 614.582 835.936 614.838 836.752 614.838Z" fill="#484848"/>
<path d="M815.016 617.526V615.054L819.864 609.99C820.824 608.982 821.56 608.182 822.072 607.59C822.6 606.982 822.968 606.462 823.176 606.03C823.384 605.598 823.488 605.158 823.488 604.71C823.488 603.958 823.248 603.366 822.768 602.934C822.304 602.502 821.704 602.286 820.968 602.286C820.2 602.286 819.536 602.51 818.976 602.958C818.416 603.39 818.008 604.03 817.752 604.878L814.896 603.99C815.088 603.046 815.48 602.23 816.072 601.542C816.664 600.838 817.384 600.302 818.232 599.934C819.096 599.55 820.008 599.358 820.968 599.358C822.12 599.358 823.128 599.566 823.992 599.982C824.872 600.398 825.552 600.982 826.032 601.734C826.528 602.486 826.776 603.366 826.776 604.374C826.776 605.014 826.656 605.646 826.416 606.27C826.176 606.894 825.816 607.534 825.336 608.19C824.856 608.83 824.232 609.55 823.464 610.35L819.264 614.766H827.016V617.526H815.016Z" fill="#484848"/>
<path d="M62.8146 425.14C61.5686 425.14 60.4766 424.804 59.5386 424.132C58.6006 423.46 57.8656 422.515 57.3336 421.297C56.8156 420.079 56.5566 418.665 56.5566 417.055C56.5566 415.431 56.8156 414.017 57.3336 412.813C57.8516 411.609 58.5796 410.671 59.5176 409.999C60.4556 409.327 61.5476 408.991 62.7936 408.991C64.0676 408.991 65.1666 409.327 66.0906 409.999C67.0286 410.671 67.7636 411.616 68.2956 412.834C68.8276 414.038 69.0936 415.445 69.0936 417.055C69.0936 418.665 68.8276 420.079 68.2956 421.297C67.7776 422.501 67.0496 423.446 66.1116 424.132C65.1736 424.804 64.0746 425.14 62.8146 425.14ZM62.8356 422.536C63.5496 422.536 64.1586 422.319 64.6626 421.885C65.1666 421.437 65.5516 420.807 65.8176 419.995C66.0976 419.169 66.2376 418.189 66.2376 417.055C66.2376 415.921 66.0976 414.948 65.8176 414.136C65.5516 413.31 65.1596 412.68 64.6416 412.246C64.1376 411.812 63.5216 411.595 62.7936 411.595C62.0936 411.595 61.4916 411.812 60.9876 412.246C60.4836 412.68 60.0916 413.31 59.8116 414.136C59.5456 414.948 59.4126 415.921 59.4126 417.055C59.4126 418.175 59.5456 419.148 59.8116 419.974C60.0916 420.786 60.4836 421.416 60.9876 421.864C61.5056 422.312 62.1216 422.536 62.8356 422.536Z" fill="#484848"/>
<path d="M47.9465 425.14C46.7005 425.14 45.6085 424.804 44.6705 424.132C43.7325 423.46 42.9975 422.515 42.4655 421.297C41.9475 420.079 41.6885 418.665 41.6885 417.055C41.6885 415.431 41.9475 414.017 42.4655 412.813C42.9835 411.609 43.7115 410.671 44.6495 409.999C45.5875 409.327 46.6795 408.991 47.9255 408.991C49.1995 408.991 50.2985 409.327 51.2225 409.999C52.1605 410.671 52.8955 411.616 53.4275 412.834C53.9595 414.038 54.2255 415.445 54.2255 417.055C54.2255 418.665 53.9595 420.079 53.4275 421.297C52.9095 422.501 52.1815 423.446 51.2435 424.132C50.3055 424.804 49.2065 425.14 47.9465 425.14ZM47.9675 422.536C48.6815 422.536 49.2905 422.319 49.7945 421.885C50.2985 421.437 50.6835 420.807 50.9495 419.995C51.2295 419.169 51.3695 418.189 51.3695 417.055C51.3695 415.921 51.2295 414.948 50.9495 414.136C50.6835 413.31 50.2915 412.68 49.7735 412.246C49.2695 411.812 48.6535 411.595 47.9255 411.595C47.2255 411.595 46.6235 411.812 46.1195 412.246C45.6155 412.68 45.2235 413.31 44.9435 414.136C44.6775 414.948 44.5445 415.921 44.5445 417.055C44.5445 418.175 44.6775 419.148 44.9435 419.974C45.2235 420.786 45.6155 421.416 46.1195 421.864C46.6375 422.312 47.2535 422.536 47.9675 422.536Z" fill="#484848"/>
<path d="M33.0783 425.14C31.8323 425.14 30.7403 424.804 29.8023 424.132C28.8643 423.46 28.1293 422.515 27.5973 421.297C27.0793 420.079 26.8203 418.665 26.8203 417.055C26.8203 415.431 27.0793 414.017 27.5973 412.813C28.1153 411.609 28.8433 410.671 29.7813 409.999C30.7193 409.327 31.8113 408.991 33.0573 408.991C34.3313 408.991 35.4303 409.327 36.3543 409.999C37.2923 410.671 38.0273 411.616 38.5593 412.834C39.0913 414.038 39.3573 415.445 39.3573 417.055C39.3573 418.665 39.0913 420.079 38.5593 421.297C38.0413 422.501 37.3133 423.446 36.3753 424.132C35.4373 424.804 34.3383 425.14 33.0783 425.14ZM33.0993 422.536C33.8133 422.536 34.4223 422.319 34.9263 421.885C35.4303 421.437 35.8153 420.807 36.0813 419.995C36.3613 419.169 36.5013 418.189 36.5013 417.055C36.5013 415.921 36.3613 414.948 36.0813 414.136C35.8153 413.31 35.4233 412.68 34.9053 412.246C34.4013 411.812 33.7853 411.595 33.0573 411.595C32.3573 411.595 31.7553 411.812 31.2513 412.246C30.7473 412.68 30.3553 413.31 30.0753 414.136C29.8093 414.948 29.6763 415.921 29.6763 417.055C29.6763 418.175 29.8093 419.148 30.0753 419.974C30.3553 420.786 30.7473 421.416 31.2513 421.864C31.7693 422.312 32.3853 422.536 33.0993 422.536Z" fill="#484848"/>
<path d="M21.4959 415.186L21.1389 409.243H23.6169L23.2809 415.186H21.4959Z" fill="#484848"/>
<path d="M7.55861 424.888V422.725L11.8006 418.294C12.6406 417.412 13.2846 416.712 13.7326 416.194C14.1946 415.662 14.5166 415.207 14.6986 414.829C14.8806 414.451 14.9716 414.066 14.9716 413.674C14.9716 413.016 14.7616 412.498 14.3416 412.12C13.9356 411.742 13.4106 411.553 12.7666 411.553C12.0946 411.553 11.5136 411.749 11.0236 412.141C10.5336 412.519 10.1766 413.079 9.95261 413.821L7.45361 413.044C7.62161 412.218 7.96461 411.504 8.48261 410.902C9.00061 410.286 9.63061 409.817 10.3726 409.495C11.1286 409.159 11.9266 408.991 12.7666 408.991C13.7746 408.991 14.6566 409.173 15.4126 409.537C16.1826 409.901 16.7776 410.412 17.1976 411.07C17.6316 411.728 17.8486 412.498 17.8486 413.38C17.8486 413.94 17.7436 414.493 17.5336 415.039C17.3236 415.585 17.0086 416.145 16.5886 416.719C16.1686 417.279 15.6226 417.909 14.9506 418.609L11.2756 422.473H18.0586V424.888H7.55861Z" fill="#484848"/>
<path d="M287.198 168.15C286.249 168.15 285.417 167.894 284.702 167.382C283.988 166.87 283.428 166.15 283.022 165.222C282.628 164.294 282.43 163.217 282.43 161.99C282.43 160.753 282.628 159.675 283.022 158.758C283.417 157.841 283.972 157.126 284.686 156.614C285.401 156.102 286.233 155.846 287.182 155.846C288.153 155.846 288.99 156.102 289.694 156.614C290.409 157.126 290.969 157.846 291.374 158.774C291.78 159.691 291.982 160.763 291.982 161.99C291.982 163.217 291.78 164.294 291.374 165.222C290.98 166.139 290.425 166.859 289.71 167.382C288.996 167.894 288.158 168.15 287.198 168.15ZM287.214 166.166C287.758 166.166 288.222 166.001 288.606 165.67C288.99 165.329 289.284 164.849 289.486 164.23C289.7 163.601 289.806 162.854 289.806 161.99C289.806 161.126 289.7 160.385 289.486 159.766C289.284 159.137 288.985 158.657 288.59 158.326C288.206 157.995 287.737 157.83 287.182 157.83C286.649 157.83 286.19 157.995 285.806 158.326C285.422 158.657 285.124 159.137 284.91 159.766C284.708 160.385 284.606 161.126 284.606 161.99C284.606 162.843 284.708 163.585 284.91 164.214C285.124 164.833 285.422 165.313 285.806 165.654C286.201 165.995 286.67 166.166 287.214 166.166Z" fill="#484848"/>
<path d="M276.443 168.15C275.813 168.15 275.211 168.033 274.635 167.798C274.069 167.563 273.579 167.233 273.163 166.806C272.757 166.369 272.48 165.851 272.331 165.254L274.219 164.582C274.4 165.126 274.693 165.531 275.099 165.798C275.504 166.054 275.952 166.182 276.443 166.182C276.848 166.182 277.205 166.097 277.515 165.926C277.835 165.745 278.08 165.499 278.251 165.19C278.421 164.87 278.507 164.502 278.507 164.086C278.507 163.67 278.416 163.307 278.235 162.998C278.064 162.689 277.824 162.449 277.515 162.278C277.205 162.097 276.848 162.006 276.443 162.006C276.027 162.006 275.648 162.097 275.307 162.278C274.976 162.459 274.736 162.721 274.587 163.062L272.811 162.662L273.755 156.038H280.251V157.878H274.619L275.435 156.934L274.763 161.926L274.139 161.414C274.437 160.977 274.8 160.657 275.227 160.454C275.664 160.251 276.192 160.15 276.811 160.15C277.6 160.15 278.283 160.321 278.859 160.662C279.445 161.003 279.899 161.467 280.219 162.054C280.539 162.641 280.699 163.318 280.699 164.086C280.699 164.854 280.512 165.547 280.139 166.166C279.765 166.785 279.259 167.27 278.619 167.622C277.979 167.974 277.253 168.15 276.443 168.15Z" fill="#484848"/>
<path d="M266.027 168.15C265.077 168.15 264.245 167.894 263.531 167.382C262.816 166.87 262.256 166.15 261.851 165.222C261.456 164.294 261.259 163.217 261.259 161.99C261.259 160.753 261.456 159.675 261.851 158.758C262.245 157.841 262.8 157.126 263.515 156.614C264.229 156.102 265.061 155.846 266.011 155.846C266.981 155.846 267.819 156.102 268.523 156.614C269.237 157.126 269.797 157.846 270.203 158.774C270.608 159.691 270.811 160.763 270.811 161.99C270.811 163.217 270.608 164.294 270.203 165.222C269.808 166.139 269.253 166.859 268.539 167.382C267.824 167.894 266.987 168.15 266.027 168.15ZM266.043 166.166C266.587 166.166 267.051 166.001 267.435 165.67C267.819 165.329 268.112 164.849 268.315 164.23C268.528 163.601 268.635 162.854 268.635 161.99C268.635 161.126 268.528 160.385 268.315 159.766C268.112 159.137 267.813 158.657 267.419 158.326C267.035 157.995 266.565 157.83 266.011 157.83C265.477 157.83 265.019 157.995 264.635 158.326C264.251 158.657 263.952 159.137 263.739 159.766C263.536 160.385 263.435 161.126 263.435 161.99C263.435 162.843 263.536 163.585 263.739 164.214C263.952 164.833 264.251 165.313 264.635 165.654C265.029 165.995 265.499 166.166 266.043 166.166Z" fill="#484848"/>
<path d="M257.202 160.566L256.93 156.038H258.818L258.562 160.566H257.202Z" fill="#484848"/>
<path d="M249.73 168.15C248.78 168.15 247.948 167.894 247.234 167.382C246.519 166.87 245.959 166.15 245.554 165.222C245.159 164.294 244.962 163.217 244.962 161.99C244.962 160.753 245.159 159.675 245.554 158.758C245.948 157.841 246.503 157.126 247.218 156.614C247.932 156.102 248.764 155.846 249.714 155.846C250.684 155.846 251.522 156.102 252.226 156.614C252.94 157.126 253.5 157.846 253.906 158.774C254.311 159.691 254.514 160.763 254.514 161.99C254.514 163.217 254.311 164.294 253.906 165.222C253.511 166.139 252.956 166.859 252.242 167.382C251.527 167.894 250.69 168.15 249.73 168.15ZM249.746 166.166C250.29 166.166 250.754 166.001 251.138 165.67C251.522 165.329 251.815 164.849 252.018 164.23C252.231 163.601 252.338 162.854 252.338 161.99C252.338 161.126 252.231 160.385 252.018 159.766C251.815 159.137 251.516 158.657 251.122 158.326C250.738 157.995 250.268 157.83 249.714 157.83C249.18 157.83 248.722 157.995 248.338 158.326C247.954 158.657 247.655 159.137 247.442 159.766C247.239 160.385 247.138 161.126 247.138 161.99C247.138 162.843 247.239 163.585 247.442 164.214C247.655 164.833 247.954 165.313 248.338 165.654C248.732 165.995 249.202 166.166 249.746 166.166Z" fill="#484848"/>
<path d="M240.381 167.958V157.894H238.077V156.038H242.557V167.958H240.381Z" fill="#484848"/>
<path d="M474.284 172.764C473.335 172.764 472.503 172.508 471.788 171.996C471.073 171.484 470.513 170.764 470.108 169.836C469.713 168.908 469.516 167.831 469.516 166.604C469.516 165.367 469.713 164.289 470.108 163.372C470.503 162.455 471.057 161.74 471.772 161.228C472.487 160.716 473.319 160.46 474.268 160.46C475.239 160.46 476.076 160.716 476.78 161.228C477.495 161.74 478.055 162.46 478.46 163.388C478.865 164.305 479.068 165.377 479.068 166.604C479.068 167.831 478.865 168.908 478.46 169.836C478.065 170.753 477.511 171.473 476.796 171.996C476.081 172.508 475.244 172.764 474.284 172.764ZM474.3 170.78C474.844 170.78 475.308 170.615 475.692 170.284C476.076 169.943 476.369 169.463 476.572 168.844C476.785 168.215 476.892 167.468 476.892 166.604C476.892 165.74 476.785 164.999 476.572 164.38C476.369 163.751 476.071 163.271 475.676 162.94C475.292 162.609 474.823 162.444 474.268 162.444C473.735 162.444 473.276 162.609 472.892 162.94C472.508 163.271 472.209 163.751 471.996 164.38C471.793 164.999 471.692 165.74 471.692 166.604C471.692 167.457 471.793 168.199 471.996 168.828C472.209 169.447 472.508 169.927 472.892 170.268C473.287 170.609 473.756 170.78 474.3 170.78Z" fill="#484848"/>
<path d="M462.956 172.764C462.007 172.764 461.175 172.508 460.46 171.996C459.745 171.484 459.185 170.764 458.78 169.836C458.385 168.908 458.188 167.831 458.188 166.604C458.188 165.367 458.385 164.289 458.78 163.372C459.175 162.455 459.729 161.74 460.444 161.228C461.159 160.716 461.991 160.46 462.94 160.46C463.911 160.46 464.748 160.716 465.452 161.228C466.167 161.74 466.727 162.46 467.132 163.388C467.537 164.305 467.74 165.377 467.74 166.604C467.74 167.831 467.537 168.908 467.132 169.836C466.737 170.753 466.183 171.473 465.468 171.996C464.753 172.508 463.916 172.764 462.956 172.764ZM462.972 170.78C463.516 170.78 463.98 170.615 464.364 170.284C464.748 169.943 465.041 169.463 465.244 168.844C465.457 168.215 465.564 167.468 465.564 166.604C465.564 165.74 465.457 164.999 465.244 164.38C465.041 163.751 464.743 163.271 464.348 162.94C463.964 162.609 463.495 162.444 462.94 162.444C462.407 162.444 461.948 162.609 461.564 162.94C461.18 163.271 460.881 163.751 460.668 164.38C460.465 164.999 460.364 165.74 460.364 166.604C460.364 167.457 460.465 168.199 460.668 168.828C460.881 169.447 461.18 169.927 461.564 170.268C461.959 170.609 462.428 170.78 462.972 170.78Z" fill="#484848"/>
<path d="M451.628 172.764C450.679 172.764 449.847 172.508 449.132 171.996C448.417 171.484 447.857 170.764 447.452 169.836C447.057 168.908 446.86 167.831 446.86 166.604C446.86 165.367 447.057 164.289 447.452 163.372C447.847 162.455 448.401 161.74 449.116 161.228C449.831 160.716 450.663 160.46 451.612 160.46C452.583 160.46 453.42 160.716 454.124 161.228C454.839 161.74 455.399 162.46 455.804 163.388C456.209 164.305 456.412 165.377 456.412 166.604C456.412 167.831 456.209 168.908 455.804 169.836C455.409 170.753 454.855 171.473 454.14 171.996C453.425 172.508 452.588 172.764 451.628 172.764ZM451.644 170.78C452.188 170.78 452.652 170.615 453.036 170.284C453.42 169.943 453.713 169.463 453.916 168.844C454.129 168.215 454.236 167.468 454.236 166.604C454.236 165.74 454.129 164.999 453.916 164.38C453.713 163.751 453.415 163.271 453.02 162.94C452.636 162.609 452.167 162.444 451.612 162.444C451.079 162.444 450.62 162.609 450.236 162.94C449.852 163.271 449.553 163.751 449.34 164.38C449.137 164.999 449.036 165.74 449.036 166.604C449.036 167.457 449.137 168.199 449.34 168.828C449.553 169.447 449.852 169.927 450.236 170.268C450.631 170.609 451.1 170.78 451.644 170.78Z" fill="#484848"/>
<path d="M442.803 165.18L442.531 160.652H444.419L444.163 165.18H442.803Z" fill="#484848"/>
<path d="M435.331 172.764C434.382 172.764 433.55 172.508 432.835 171.996C432.12 171.484 431.56 170.764 431.155 169.836C430.76 168.908 430.563 167.831 430.563 166.604C430.563 165.367 430.76 164.289 431.155 163.372C431.55 162.455 432.104 161.74 432.819 161.228C433.534 160.716 434.366 160.46 435.315 160.46C436.286 160.46 437.123 160.716 437.827 161.228C438.542 161.74 439.102 162.46 439.507 163.388C439.912 164.305 440.115 165.377 440.115 166.604C440.115 167.831 439.912 168.908 439.507 169.836C439.112 170.753 438.558 171.473 437.843 171.996C437.128 172.508 436.291 172.764 435.331 172.764ZM435.347 170.78C435.891 170.78 436.355 170.615 436.739 170.284C437.123 169.943 437.416 169.463 437.619 168.844C437.832 168.215 437.939 167.468 437.939 166.604C437.939 165.74 437.832 164.999 437.619 164.38C437.416 163.751 437.118 163.271 436.723 162.94C436.339 162.609 435.87 162.444 435.315 162.444C434.782 162.444 434.323 162.609 433.939 162.94C433.555 163.271 433.256 163.751 433.043 164.38C432.84 164.999 432.739 165.74 432.739 166.604C432.739 167.457 432.84 168.199 433.043 168.828C433.256 169.447 433.555 169.927 433.939 170.268C434.334 170.609 434.803 170.78 435.347 170.78Z" fill="#484848"/>
<path d="M425.982 172.572V162.508H423.678V160.652H428.158V172.572H425.982Z" fill="#484848"/>
<path d="M671.469 78.1749C670.519 78.1749 669.687 77.9189 668.973 77.4069C668.258 76.8949 667.698 76.1749 667.293 75.2469C666.898 74.3189 666.701 73.2416 666.701 72.0149C666.701 70.7776 666.898 69.7002 667.293 68.7829C667.687 67.8656 668.242 67.1509 668.957 66.6389C669.671 66.1269 670.503 65.8709 671.453 65.8709C672.423 65.8709 673.261 66.1269 673.965 66.6389C674.679 67.1509 675.239 67.8709 675.645 68.7989C676.05 69.7162 676.253 70.7882 676.253 72.0149C676.253 73.2416 676.05 74.3189 675.645 75.2469C675.25 76.1642 674.695 76.8842 673.981 77.4069C673.266 77.9189 672.429 78.1749 671.469 78.1749ZM671.485 76.1909C672.029 76.1909 672.493 76.0256 672.877 75.6949C673.261 75.3536 673.554 74.8736 673.757 74.2549C673.97 73.6256 674.077 72.8789 674.077 72.0149C674.077 71.1509 673.97 70.4096 673.757 69.7909C673.554 69.1616 673.255 68.6816 672.861 68.3509C672.477 68.0202 672.007 67.8549 671.453 67.8549C670.919 67.8549 670.461 68.0202 670.077 68.3509C669.693 68.6816 669.394 69.1616 669.181 69.7909C668.978 70.4096 668.877 71.1509 668.877 72.0149C668.877 72.8682 668.978 73.6096 669.181 74.2389C669.394 74.8576 669.693 75.3376 670.077 75.6789C670.471 76.0202 670.941 76.1909 671.485 76.1909Z" fill="#484848"/>
<path d="M660.141 78.1749C659.191 78.1749 658.359 77.9189 657.645 77.4069C656.93 76.8949 656.37 76.1749 655.965 75.2469C655.57 74.3189 655.373 73.2416 655.373 72.0149C655.373 70.7776 655.57 69.7002 655.965 68.7829C656.359 67.8656 656.914 67.1509 657.629 66.6389C658.343 66.1269 659.175 65.8709 660.125 65.8709C661.095 65.8709 661.933 66.1269 662.637 66.6389C663.351 67.1509 663.911 67.8709 664.317 68.7989C664.722 69.7162 664.925 70.7882 664.925 72.0149C664.925 73.2416 664.722 74.3189 664.317 75.2469C663.922 76.1642 663.367 76.8842 662.653 77.4069C661.938 77.9189 661.101 78.1749 660.141 78.1749ZM660.157 76.1909C660.701 76.1909 661.165 76.0256 661.549 75.6949C661.933 75.3536 662.226 74.8736 662.429 74.2549C662.642 73.6256 662.749 72.8789 662.749 72.0149C662.749 71.1509 662.642 70.4096 662.429 69.7909C662.226 69.1616 661.927 68.6816 661.533 68.3509C661.149 68.0202 660.679 67.8549 660.125 67.8549C659.591 67.8549 659.133 68.0202 658.749 68.3509C658.365 68.6816 658.066 69.1616 657.853 69.7909C657.65 70.4096 657.549 71.1509 657.549 72.0149C657.549 72.8682 657.65 73.6096 657.853 74.2389C658.066 74.8576 658.365 75.3376 658.749 75.6789C659.143 76.0202 659.613 76.1909 660.157 76.1909Z" fill="#484848"/>
<path d="M648.812 78.1749C647.863 78.1749 647.031 77.9189 646.316 77.4069C645.602 76.8949 645.042 76.1749 644.636 75.2469C644.242 74.3189 644.044 73.2416 644.044 72.0149C644.044 70.7776 644.242 69.7002 644.636 68.7829C645.031 67.8656 645.586 67.1509 646.3 66.6389C647.015 66.1269 647.847 65.8709 648.796 65.8709C649.767 65.8709 650.604 66.1269 651.308 66.6389C652.023 67.1509 652.583 67.8709 652.988 68.7989C653.394 69.7162 653.596 70.7882 653.596 72.0149C653.596 73.2416 653.394 74.3189 652.988 75.2469C652.594 76.1642 652.039 76.8842 651.324 77.4069C650.61 77.9189 649.772 78.1749 648.812 78.1749ZM648.828 76.1909C649.372 76.1909 649.836 76.0256 650.22 75.6949C650.604 75.3536 650.898 74.8736 651.1 74.2549C651.314 73.6256 651.42 72.8789 651.42 72.0149C651.42 71.1509 651.314 70.4096 651.1 69.7909C650.898 69.1616 650.599 68.6816 650.204 68.3509C649.82 68.0202 649.351 67.8549 648.796 67.8549C648.263 67.8549 647.804 68.0202 647.42 68.3509C647.036 68.6816 646.738 69.1616 646.524 69.7909C646.322 70.4096 646.22 71.1509 646.22 72.0149C646.22 72.8682 646.322 73.6096 646.524 74.2389C646.738 74.8576 647.036 75.3376 647.42 75.6789C647.815 76.0202 648.284 76.1909 648.828 76.1909Z" fill="#484848"/>
<path d="M639.988 70.5909L639.716 66.0629H641.604L641.348 70.5909H639.988Z" fill="#484848"/>
<path d="M633.759 77.9829V75.3589H628.287V73.5349L633.631 66.0629H635.903V73.5349H637.647V75.3589H635.903V77.9829H633.759ZM629.887 74.3189L629.503 73.5349H633.759V67.7749L634.319 67.9509L629.887 74.3189Z" fill="#484848"/>
<path d="M624.026 77.9829V67.9189H621.722V66.0629H626.202V77.9829H624.026Z" fill="#484848"/>
<path d="M1067.07 42.6471C1066.12 42.6471 1065.29 42.3911 1064.57 41.8791C1063.86 41.3671 1063.3 40.6471 1062.89 39.7191C1062.5 38.7911 1062.3 37.7137 1062.3 36.4871C1062.3 35.2497 1062.5 34.1724 1062.89 33.2551C1063.29 32.3377 1063.84 31.6231 1064.56 31.1111C1065.27 30.5991 1066.1 30.3431 1067.05 30.3431C1068.02 30.3431 1068.86 30.5991 1069.56 31.1111C1070.28 31.6231 1070.84 32.3431 1071.24 33.2711C1071.65 34.1884 1071.85 35.2604 1071.85 36.4871C1071.85 37.7137 1071.65 38.7911 1071.24 39.7191C1070.85 40.6364 1070.3 41.3564 1069.58 41.8791C1068.87 42.3911 1068.03 42.6471 1067.07 42.6471ZM1067.08 40.6631C1067.63 40.6631 1068.09 40.4977 1068.48 40.1671C1068.86 39.8257 1069.15 39.3457 1069.36 38.7271C1069.57 38.0977 1069.68 37.3511 1069.68 36.4871C1069.68 35.6231 1069.57 34.8817 1069.36 34.2631C1069.15 33.6337 1068.86 33.1537 1068.46 32.8231C1068.08 32.4924 1067.61 32.3271 1067.05 32.3271C1066.52 32.3271 1066.06 32.4924 1065.68 32.8231C1065.29 33.1537 1064.99 33.6337 1064.78 34.2631C1064.58 34.8817 1064.48 35.6231 1064.48 36.4871C1064.48 37.3404 1064.58 38.0817 1064.78 38.7111C1064.99 39.3297 1065.29 39.8097 1065.68 40.1511C1066.07 40.4924 1066.54 40.6631 1067.08 40.6631Z" fill="#484848"/>
<path d="M1055.74 42.6471C1054.79 42.6471 1053.96 42.3911 1053.24 41.8791C1052.53 41.3671 1051.97 40.6471 1051.56 39.7191C1051.17 38.7911 1050.97 37.7137 1050.97 36.4871C1050.97 35.2497 1051.17 34.1724 1051.56 33.2551C1051.96 32.3377 1052.51 31.6231 1053.23 31.1111C1053.94 30.5991 1054.78 30.3431 1055.72 30.3431C1056.7 30.3431 1057.53 30.5991 1058.24 31.1111C1058.95 31.6231 1059.51 32.3431 1059.92 33.2711C1060.32 34.1884 1060.52 35.2604 1060.52 36.4871C1060.52 37.7137 1060.32 38.7911 1059.92 39.7191C1059.52 40.6364 1058.97 41.3564 1058.25 41.8791C1057.54 42.3911 1056.7 42.6471 1055.74 42.6471ZM1055.76 40.6631C1056.3 40.6631 1056.76 40.4977 1057.15 40.1671C1057.53 39.8257 1057.83 39.3457 1058.03 38.7271C1058.24 38.0977 1058.35 37.3511 1058.35 36.4871C1058.35 35.6231 1058.24 34.8817 1058.03 34.2631C1057.83 33.6337 1057.53 33.1537 1057.13 32.8231C1056.75 32.4924 1056.28 32.3271 1055.72 32.3271C1055.19 32.3271 1054.73 32.4924 1054.35 32.8231C1053.96 33.1537 1053.67 33.6337 1053.45 34.2631C1053.25 34.8817 1053.15 35.6231 1053.15 36.4871C1053.15 37.3404 1053.25 38.0817 1053.45 38.7111C1053.67 39.3297 1053.96 39.8097 1054.35 40.1511C1054.74 40.4924 1055.21 40.6631 1055.76 40.6631Z" fill="#484848"/>
<path d="M1044.41 42.6471C1043.46 42.6471 1042.63 42.3911 1041.92 41.8791C1041.2 41.3671 1040.64 40.6471 1040.24 39.7191C1039.84 38.7911 1039.64 37.7137 1039.64 36.4871C1039.64 35.2497 1039.84 34.1724 1040.24 33.2551C1040.63 32.3377 1041.19 31.6231 1041.9 31.1111C1042.62 30.5991 1043.45 30.3431 1044.4 30.3431C1045.37 30.3431 1046.2 30.5991 1046.91 31.1111C1047.62 31.6231 1048.18 32.3431 1048.59 33.2711C1048.99 34.1884 1049.2 35.2604 1049.2 36.4871C1049.2 37.7137 1048.99 38.7911 1048.59 39.7191C1048.19 40.6364 1047.64 41.3564 1046.92 41.8791C1046.21 42.3911 1045.37 42.6471 1044.41 42.6471ZM1044.43 40.6631C1044.97 40.6631 1045.44 40.4977 1045.82 40.1671C1046.2 39.8257 1046.5 39.3457 1046.7 38.7271C1046.91 38.0977 1047.02 37.3511 1047.02 36.4871C1047.02 35.6231 1046.91 34.8817 1046.7 34.2631C1046.5 33.6337 1046.2 33.1537 1045.8 32.8231C1045.42 32.4924 1044.95 32.3271 1044.4 32.3271C1043.86 32.3271 1043.4 32.4924 1043.02 32.8231C1042.64 33.1537 1042.34 33.6337 1042.12 34.2631C1041.92 34.8817 1041.82 35.6231 1041.82 36.4871C1041.82 37.3404 1041.92 38.0817 1042.12 38.7111C1042.34 39.3297 1042.64 39.8097 1043.02 40.1511C1043.42 40.4924 1043.88 40.6631 1044.43 40.6631Z" fill="#484848"/>
<path d="M1035.59 35.0631L1035.32 30.5351H1037.2L1036.95 35.0631H1035.59Z" fill="#484848"/>
<path d="M1028.69 42.6471C1028.06 42.6471 1027.46 42.5297 1026.88 42.2951C1026.31 42.0604 1025.82 41.7297 1025.41 41.3031C1025 40.8657 1024.73 40.3484 1024.58 39.7511L1026.46 39.0791C1026.65 39.6231 1026.94 40.0284 1027.34 40.2951C1027.75 40.5511 1028.2 40.6791 1028.69 40.6791C1029.09 40.6791 1029.45 40.5937 1029.76 40.4231C1030.08 40.2417 1030.33 39.9964 1030.5 39.6871C1030.67 39.3671 1030.75 38.9991 1030.75 38.5831C1030.75 38.1671 1030.66 37.8044 1030.48 37.4951C1030.31 37.1857 1030.07 36.9457 1029.76 36.7751C1029.45 36.5937 1029.09 36.5031 1028.69 36.5031C1028.27 36.5031 1027.89 36.5937 1027.55 36.7751C1027.22 36.9564 1026.98 37.2177 1026.83 37.5591L1025.06 37.1591L1026 30.5351H1032.5V32.3751H1026.86L1027.68 31.4311L1027.01 36.4231L1026.38 35.9111C1026.68 35.4737 1027.05 35.1537 1027.47 34.9511C1027.91 34.7484 1028.44 34.6471 1029.06 34.6471C1029.85 34.6471 1030.53 34.8177 1031.1 35.1591C1031.69 35.5004 1032.14 35.9644 1032.46 36.5511C1032.78 37.1377 1032.94 37.8151 1032.94 38.5831C1032.94 39.3511 1032.76 40.0444 1032.38 40.6631C1032.01 41.2817 1031.5 41.7671 1030.86 42.1191C1030.22 42.4711 1029.5 42.6471 1028.69 42.6471Z" fill="#484848"/>
<path d="M1020.25 42.4551V32.3911H1017.95V30.5351H1022.43V42.4551H1020.25Z" fill="#484848"/>
<path d="M1265.85 78.1749C1264.9 78.1749 1264.07 77.9189 1263.36 77.4069C1262.64 76.8949 1262.08 76.1749 1261.68 75.2469C1261.28 74.3189 1261.08 73.2416 1261.08 72.0149C1261.08 70.7776 1261.28 69.7002 1261.68 68.7829C1262.07 67.8656 1262.63 67.1509 1263.34 66.6389C1264.05 66.1269 1264.89 65.8709 1265.84 65.8709C1266.81 65.8709 1267.64 66.1269 1268.35 66.6389C1269.06 67.1509 1269.62 67.8709 1270.03 68.7989C1270.43 69.7162 1270.64 70.7882 1270.64 72.0149C1270.64 73.2416 1270.43 74.3189 1270.03 75.2469C1269.63 76.1642 1269.08 76.8842 1268.36 77.4069C1267.65 77.9189 1266.81 78.1749 1265.85 78.1749ZM1265.87 76.1909C1266.41 76.1909 1266.88 76.0256 1267.26 75.6949C1267.64 75.3536 1267.94 74.8736 1268.14 74.2549C1268.35 73.6256 1268.46 72.8789 1268.46 72.0149C1268.46 71.1509 1268.35 70.4096 1268.14 69.7909C1267.94 69.1616 1267.64 68.6816 1267.24 68.3509C1266.86 68.0202 1266.39 67.8549 1265.84 67.8549C1265.3 67.8549 1264.84 68.0202 1264.46 68.3509C1264.08 68.6816 1263.78 69.1616 1263.56 69.7909C1263.36 70.4096 1263.26 71.1509 1263.26 72.0149C1263.26 72.8682 1263.36 73.6096 1263.56 74.2389C1263.78 74.8576 1264.08 75.3376 1264.46 75.6789C1264.85 76.0202 1265.32 76.1909 1265.87 76.1909Z" fill="#484848"/>
<path d="M1254.52 78.1749C1253.57 78.1749 1252.74 77.9189 1252.03 77.4069C1251.31 76.8949 1250.75 76.1749 1250.35 75.2469C1249.95 74.3189 1249.76 73.2416 1249.76 72.0149C1249.76 70.7776 1249.95 69.7002 1250.35 68.7829C1250.74 67.8656 1251.3 67.1509 1252.01 66.6389C1252.73 66.1269 1253.56 65.8709 1254.51 65.8709C1255.48 65.8709 1256.32 66.1269 1257.02 66.6389C1257.73 67.1509 1258.29 67.8709 1258.7 68.7989C1259.11 69.7162 1259.31 70.7882 1259.31 72.0149C1259.31 73.2416 1259.11 74.3189 1258.7 75.2469C1258.31 76.1642 1257.75 76.8842 1257.04 77.4069C1256.32 77.9189 1255.48 78.1749 1254.52 78.1749ZM1254.54 76.1909C1255.08 76.1909 1255.55 76.0256 1255.93 75.6949C1256.32 75.3536 1256.61 74.8736 1256.81 74.2549C1257.03 73.6256 1257.13 72.8789 1257.13 72.0149C1257.13 71.1509 1257.03 70.4096 1256.81 69.7909C1256.61 69.1616 1256.31 68.6816 1255.92 68.3509C1255.53 68.0202 1255.06 67.8549 1254.51 67.8549C1253.97 67.8549 1253.52 68.0202 1253.13 68.3509C1252.75 68.6816 1252.45 69.1616 1252.24 69.7909C1252.03 70.4096 1251.93 71.1509 1251.93 72.0149C1251.93 72.8682 1252.03 73.6096 1252.24 74.2389C1252.45 74.8576 1252.75 75.3376 1253.13 75.6789C1253.53 76.0202 1254 76.1909 1254.54 76.1909Z" fill="#484848"/>
<path d="M1243.2 78.1749C1242.25 78.1749 1241.41 77.9189 1240.7 77.4069C1239.99 76.8949 1239.43 76.1749 1239.02 75.2469C1238.63 74.3189 1238.43 73.2416 1238.43 72.0149C1238.43 70.7776 1238.63 69.7002 1239.02 68.7829C1239.41 67.8656 1239.97 67.1509 1240.68 66.6389C1241.4 66.1269 1242.23 65.8709 1243.18 65.8709C1244.15 65.8709 1244.99 66.1269 1245.69 66.6389C1246.41 67.1509 1246.97 67.8709 1247.37 68.7989C1247.78 69.7162 1247.98 70.7882 1247.98 72.0149C1247.98 73.2416 1247.78 74.3189 1247.37 75.2469C1246.98 76.1642 1246.42 76.8842 1245.71 77.4069C1244.99 77.9189 1244.16 78.1749 1243.2 78.1749ZM1243.21 76.1909C1243.76 76.1909 1244.22 76.0256 1244.6 75.6949C1244.99 75.3536 1245.28 74.8736 1245.48 74.2549C1245.7 73.6256 1245.8 72.8789 1245.8 72.0149C1245.8 71.1509 1245.7 70.4096 1245.48 69.7909C1245.28 69.1616 1244.98 68.6816 1244.59 68.3509C1244.2 68.0202 1243.73 67.8549 1243.18 67.8549C1242.65 67.8549 1242.19 68.0202 1241.8 68.3509C1241.42 68.6816 1241.12 69.1616 1240.91 69.7909C1240.71 70.4096 1240.6 71.1509 1240.6 72.0149C1240.6 72.8682 1240.71 73.6096 1240.91 74.2389C1241.12 74.8576 1241.42 75.3376 1241.8 75.6789C1242.2 76.0202 1242.67 76.1909 1243.21 76.1909Z" fill="#484848"/>
<path d="M1234.37 70.5909L1234.1 66.0629H1235.99L1235.73 70.5909H1234.37Z" fill="#484848"/>
<path d="M1228.14 77.9829V75.3589H1222.67V73.5349L1228.01 66.0629H1230.29V73.5349H1232.03V75.3589H1230.29V77.9829H1228.14ZM1224.27 74.3189L1223.89 73.5349H1228.14V67.7749L1228.7 67.9509L1224.27 74.3189Z" fill="#484848"/>
<path d="M1218.41 77.9829V67.9189H1216.1V66.0629H1220.58V77.9829H1218.41Z" fill="#484848"/>
<path d="M865.138 157.076C864.188 157.076 863.356 156.82 862.642 156.308C861.927 155.796 861.367 155.076 860.962 154.148C860.567 153.22 860.37 152.143 860.37 150.916C860.37 149.679 860.567 148.601 860.962 147.684C861.356 146.767 861.911 146.052 862.626 145.54C863.34 145.028 864.172 144.772 865.122 144.772C866.092 144.772 866.93 145.028 867.634 145.54C868.348 146.052 868.908 146.772 869.314 147.7C869.719 148.617 869.922 149.689 869.922 150.916C869.922 152.143 869.719 153.22 869.314 154.148C868.919 155.065 868.364 155.785 867.65 156.308C866.935 156.82 866.098 157.076 865.138 157.076ZM865.154 155.092C865.698 155.092 866.162 154.927 866.546 154.596C866.93 154.255 867.223 153.775 867.426 153.156C867.639 152.527 867.746 151.78 867.746 150.916C867.746 150.052 867.639 149.311 867.426 148.692C867.223 148.063 866.924 147.583 866.53 147.252C866.146 146.921 865.676 146.756 865.122 146.756C864.588 146.756 864.13 146.921 863.746 147.252C863.362 147.583 863.063 148.063 862.85 148.692C862.647 149.311 862.546 150.052 862.546 150.916C862.546 151.769 862.647 152.511 862.85 153.14C863.063 153.759 863.362 154.239 863.746 154.58C864.14 154.921 864.61 155.092 865.154 155.092Z" fill="#484848"/>
<path d="M853.81 157.076C852.86 157.076 852.028 156.82 851.314 156.308C850.599 155.796 850.039 155.076 849.634 154.148C849.239 153.22 849.042 152.143 849.042 150.916C849.042 149.679 849.239 148.601 849.634 147.684C850.028 146.767 850.583 146.052 851.298 145.54C852.012 145.028 852.844 144.772 853.794 144.772C854.764 144.772 855.602 145.028 856.306 145.54C857.02 146.052 857.58 146.772 857.986 147.7C858.391 148.617 858.594 149.689 858.594 150.916C858.594 152.143 858.391 153.22 857.986 154.148C857.591 155.065 857.036 155.785 856.322 156.308C855.607 156.82 854.77 157.076 853.81 157.076ZM853.826 155.092C854.37 155.092 854.834 154.927 855.218 154.596C855.602 154.255 855.895 153.775 856.098 153.156C856.311 152.527 856.418 151.78 856.418 150.916C856.418 150.052 856.311 149.311 856.098 148.692C855.895 148.063 855.596 147.583 855.202 147.252C854.818 146.921 854.348 146.756 853.794 146.756C853.26 146.756 852.802 146.921 852.418 147.252C852.034 147.583 851.735 148.063 851.522 148.692C851.319 149.311 851.218 150.052 851.218 150.916C851.218 151.769 851.319 152.511 851.522 153.14C851.735 153.759 852.034 154.239 852.418 154.58C852.812 154.921 853.282 155.092 853.826 155.092Z" fill="#484848"/>
<path d="M843.054 157.076C842.424 157.076 841.822 156.959 841.246 156.724C840.68 156.489 840.19 156.159 839.774 155.732C839.368 155.295 839.091 154.777 838.942 154.18L840.83 153.508C841.011 154.052 841.304 154.457 841.71 154.724C842.115 154.98 842.563 155.108 843.054 155.108C843.459 155.108 843.816 155.023 844.126 154.852C844.446 154.671 844.691 154.425 844.862 154.116C845.032 153.796 845.118 153.428 845.118 153.012C845.118 152.596 845.027 152.233 844.846 151.924C844.675 151.615 844.435 151.375 844.126 151.204C843.816 151.023 843.459 150.932 843.054 150.932C842.638 150.932 842.259 151.023 841.918 151.204C841.587 151.385 841.347 151.647 841.198 151.988L839.422 151.588L840.366 144.964H846.862V146.804H841.23L842.046 145.86L841.374 150.852L840.75 150.34C841.048 149.903 841.411 149.583 841.838 149.38C842.275 149.177 842.803 149.076 843.422 149.076C844.211 149.076 844.894 149.247 845.47 149.588C846.056 149.929 846.51 150.393 846.83 150.98C847.15 151.567 847.31 152.244 847.31 153.012C847.31 153.78 847.123 154.473 846.75 155.092C846.376 155.711 845.87 156.196 845.23 156.548C844.59 156.9 843.864 157.076 843.054 157.076Z" fill="#484848"/>
<path d="M835.141 149.492L834.869 144.964H836.757L836.501 149.492H835.141Z" fill="#484848"/>
<path d="M829.648 156.884V146.82H827.344V144.964H831.824V156.884H829.648Z" fill="#484848"/>
<path d="M823.195 156.884V146.82H820.891V144.964H825.371V156.884H823.195Z" fill="#484848"/>
<path d="M62.5969 370.694C61.3509 370.694 60.2589 370.358 59.3209 369.686C58.3829 369.014 57.6479 368.069 57.1159 366.851C56.5979 365.633 56.3389 364.219 56.3389 362.609C56.3389 360.985 56.5979 359.571 57.1159 358.367C57.6339 357.163 58.3619 356.225 59.2999 355.553C60.2379 354.881 61.3299 354.545 62.5759 354.545C63.8499 354.545 64.9489 354.881 65.8729 355.553C66.8109 356.225 67.5459 357.17 68.0779 358.388C68.6099 359.592 68.8759 360.999 68.8759 362.609C68.8759 364.219 68.6099 365.633 68.0779 366.851C67.5599 368.055 66.8319 369 65.8939 369.686C64.9559 370.358 63.8569 370.694 62.5969 370.694ZM62.6179 368.09C63.3319 368.09 63.9409 367.873 64.4449 367.439C64.9489 366.991 65.3339 366.361 65.5999 365.549C65.8799 364.723 66.0199 363.743 66.0199 362.609C66.0199 361.475 65.8799 360.502 65.5999 359.69C65.3339 358.864 64.9419 358.234 64.4239 357.8C63.9199 357.366 63.3039 357.149 62.5759 357.149C61.8759 357.149 61.2739 357.366 60.7699 357.8C60.2659 358.234 59.8739 358.864 59.5939 359.69C59.3279 360.502 59.1949 361.475 59.1949 362.609C59.1949 363.729 59.3279 364.702 59.5939 365.528C59.8739 366.34 60.2659 366.97 60.7699 367.418C61.2879 367.866 61.9039 368.09 62.6179 368.09Z" fill="#484848"/>
<path d="M47.7287 370.694C46.4827 370.694 45.3907 370.358 44.4527 369.686C43.5147 369.014 42.7797 368.069 42.2477 366.851C41.7297 365.633 41.4707 364.219 41.4707 362.609C41.4707 360.985 41.7297 359.571 42.2477 358.367C42.7657 357.163 43.4937 356.225 44.4317 355.553C45.3697 354.881 46.4617 354.545 47.7077 354.545C48.9817 354.545 50.0807 354.881 51.0047 355.553C51.9427 356.225 52.6777 357.17 53.2097 358.388C53.7417 359.592 54.0077 360.999 54.0077 362.609C54.0077 364.219 53.7417 365.633 53.2097 366.851C52.6917 368.055 51.9637 369 51.0257 369.686C50.0877 370.358 48.9887 370.694 47.7287 370.694ZM47.7497 368.09C48.4637 368.09 49.0727 367.873 49.5767 367.439C50.0807 366.991 50.4657 366.361 50.7317 365.549C51.0117 364.723 51.1517 363.743 51.1517 362.609C51.1517 361.475 51.0117 360.502 50.7317 359.69C50.4657 358.864 50.0737 358.234 49.5557 357.8C49.0517 357.366 48.4357 357.149 47.7077 357.149C47.0077 357.149 46.4057 357.366 45.9017 357.8C45.3977 358.234 45.0057 358.864 44.7257 359.69C44.4597 360.502 44.3267 361.475 44.3267 362.609C44.3267 363.729 44.4597 364.702 44.7257 365.528C45.0057 366.34 45.3977 366.97 45.9017 367.418C46.4197 367.866 47.0357 368.09 47.7497 368.09Z" fill="#484848"/>
<path d="M32.8605 370.694C31.6145 370.694 30.5225 370.358 29.5845 369.686C28.6465 369.014 27.9115 368.069 27.3795 366.851C26.8615 365.633 26.6025 364.219 26.6025 362.609C26.6025 360.985 26.8615 359.571 27.3795 358.367C27.8975 357.163 28.6255 356.225 29.5635 355.553C30.5015 354.881 31.5935 354.545 32.8395 354.545C34.1135 354.545 35.2125 354.881 36.1365 355.553C37.0745 356.225 37.8095 357.17 38.3415 358.388C38.8735 359.592 39.1395 360.999 39.1395 362.609C39.1395 364.219 38.8735 365.633 38.3415 366.851C37.8235 368.055 37.0955 369 36.1575 369.686C35.2195 370.358 34.1205 370.694 32.8605 370.694ZM32.8815 368.09C33.5955 368.09 34.2045 367.873 34.7085 367.439C35.2125 366.991 35.5975 366.361 35.8635 365.549C36.1435 364.723 36.2835 363.743 36.2835 362.609C36.2835 361.475 36.1435 360.502 35.8635 359.69C35.5975 358.864 35.2055 358.234 34.6875 357.8C34.1835 357.366 33.5675 357.149 32.8395 357.149C32.1395 357.149 31.5375 357.366 31.0335 357.8C30.5295 358.234 30.1375 358.864 29.8575 359.69C29.5915 360.502 29.4585 361.475 29.4585 362.609C29.4585 363.729 29.5915 364.702 29.8575 365.528C30.1375 366.34 30.5295 366.97 31.0335 367.418C31.5515 367.866 32.1675 368.09 32.8815 368.09Z" fill="#484848"/>
<path d="M21.2781 360.74L20.9211 354.797H23.3991L23.0631 360.74H21.2781Z" fill="#484848"/>
<path d="M13.1029 370.442V366.998H5.9209V364.604L12.9349 354.797H15.9169V364.604H18.2059V366.998H15.9169V370.442H13.1029ZM8.0209 365.633L7.5169 364.604H13.1029V357.044L13.8379 357.275L8.0209 365.633Z" fill="#484848"/>
<path d="M62.8854 316.247C61.6394 316.247 60.5474 315.911 59.6094 315.239C58.6714 314.567 57.9364 313.622 57.4044 312.404C56.8864 311.186 56.6274 309.772 56.6274 308.162C56.6274 306.538 56.8864 305.124 57.4044 303.92C57.9224 302.716 58.6504 301.778 59.5884 301.106C60.5264 300.434 61.6184 300.098 62.8644 300.098C64.1384 300.098 65.2374 300.434 66.1614 301.106C67.0994 301.778 67.8344 302.723 68.3664 303.941C68.8984 305.145 69.1644 306.552 69.1644 308.162C69.1644 309.772 68.8984 311.186 68.3664 312.404C67.8484 313.608 67.1204 314.553 66.1824 315.239C65.2444 315.911 64.1454 316.247 62.8854 316.247ZM62.9064 313.643C63.6204 313.643 64.2294 313.426 64.7334 312.992C65.2374 312.544 65.6224 311.914 65.8884 311.102C66.1684 310.276 66.3084 309.296 66.3084 308.162C66.3084 307.028 66.1684 306.055 65.8884 305.243C65.6224 304.417 65.2304 303.787 64.7124 303.353C64.2084 302.919 63.5924 302.702 62.8644 302.702C62.1644 302.702 61.5624 302.919 61.0584 303.353C60.5544 303.787 60.1624 304.417 59.8824 305.243C59.6164 306.055 59.4834 307.028 59.4834 308.162C59.4834 309.282 59.6164 310.255 59.8824 311.081C60.1624 311.893 60.5544 312.523 61.0584 312.971C61.5764 313.419 62.1924 313.643 62.9064 313.643Z" fill="#484848"/>
<path d="M48.0173 316.247C46.7713 316.247 45.6793 315.911 44.7413 315.239C43.8033 314.567 43.0683 313.622 42.5363 312.404C42.0183 311.186 41.7593 309.772 41.7593 308.162C41.7593 306.538 42.0183 305.124 42.5363 303.92C43.0543 302.716 43.7823 301.778 44.7203 301.106C45.6583 300.434 46.7503 300.098 47.9963 300.098C49.2703 300.098 50.3693 300.434 51.2933 301.106C52.2313 301.778 52.9663 302.723 53.4983 303.941C54.0303 305.145 54.2963 306.552 54.2963 308.162C54.2963 309.772 54.0303 311.186 53.4983 312.404C52.9803 313.608 52.2523 314.553 51.3143 315.239C50.3763 315.911 49.2773 316.247 48.0173 316.247ZM48.0383 313.643C48.7523 313.643 49.3613 313.426 49.8653 312.992C50.3693 312.544 50.7543 311.914 51.0203 311.102C51.3003 310.276 51.4403 309.296 51.4403 308.162C51.4403 307.028 51.3003 306.055 51.0203 305.243C50.7543 304.417 50.3623 303.787 49.8443 303.353C49.3403 302.919 48.7243 302.702 47.9963 302.702C47.2963 302.702 46.6943 302.919 46.1903 303.353C45.6863 303.787 45.2943 304.417 45.0143 305.243C44.7483 306.055 44.6153 307.028 44.6153 308.162C44.6153 309.282 44.7483 310.255 45.0143 311.081C45.2943 311.893 45.6863 312.523 46.1903 312.971C46.7083 313.419 47.3243 313.643 48.0383 313.643Z" fill="#484848"/>
<path d="M33.1491 316.247C31.9031 316.247 30.8111 315.911 29.8731 315.239C28.9351 314.567 28.2001 313.622 27.6681 312.404C27.1501 311.186 26.8911 309.772 26.8911 308.162C26.8911 306.538 27.1501 305.124 27.6681 303.92C28.1861 302.716 28.9141 301.778 29.8521 301.106C30.7901 300.434 31.8821 300.098 33.1281 300.098C34.4021 300.098 35.5011 300.434 36.4251 301.106C37.3631 301.778 38.0981 302.723 38.6301 303.941C39.1621 305.145 39.4281 306.552 39.4281 308.162C39.4281 309.772 39.1621 311.186 38.6301 312.404C38.1121 313.608 37.3841 314.553 36.4461 315.239C35.5081 315.911 34.4091 316.247 33.1491 316.247ZM33.1701 313.643C33.8841 313.643 34.4931 313.426 34.9971 312.992C35.5011 312.544 35.8861 311.914 36.1521 311.102C36.4321 310.276 36.5721 309.296 36.5721 308.162C36.5721 307.028 36.4321 306.055 36.1521 305.243C35.8861 304.417 35.4941 303.787 34.9761 303.353C34.4721 302.919 33.8561 302.702 33.1281 302.702C32.4281 302.702 31.8261 302.919 31.3221 303.353C30.8181 303.787 30.4261 304.417 30.1461 305.243C29.8801 306.055 29.7471 307.028 29.7471 308.162C29.7471 309.282 29.8801 310.255 30.1461 311.081C30.4261 311.893 30.8181 312.523 31.3221 312.971C31.8401 313.419 32.4561 313.643 33.1701 313.643Z" fill="#484848"/>
<path d="M21.5667 306.293L21.2097 300.35H23.6877L23.3517 306.293H21.5667Z" fill="#484848"/>
<path d="M12.9029 316.247C11.8389 316.247 10.8939 316.023 10.0679 315.575C9.25587 315.113 8.61887 314.497 8.15687 313.727C7.69487 312.943 7.46387 312.054 7.46387 311.06C7.46387 310.556 7.51287 310.052 7.61087 309.548C7.72287 309.044 7.91887 308.505 8.19887 307.931C8.49287 307.357 8.91287 306.72 9.45887 306.02L13.8269 300.35H17.2289L11.9159 307.175L11.4539 306.671C11.6499 306.517 11.8529 306.398 12.0629 306.314C12.2729 306.216 12.4829 306.146 12.6929 306.104C12.9169 306.062 13.1479 306.041 13.3859 306.041C14.3379 306.041 15.1849 306.258 15.9269 306.692C16.6689 307.126 17.2499 307.721 17.6699 308.477C18.1039 309.219 18.3209 310.059 18.3209 310.997C18.3209 312.005 18.0899 312.908 17.6279 313.706C17.1659 314.49 16.5219 315.113 15.6959 315.575C14.8839 316.023 13.9529 316.247 12.9029 316.247ZM12.9029 313.664C13.3789 313.664 13.8059 313.559 14.1839 313.349C14.5759 313.125 14.8839 312.81 15.1079 312.404C15.3459 311.998 15.4649 311.543 15.4649 311.039C15.4649 310.507 15.3459 310.052 15.1079 309.674C14.8839 309.282 14.5829 308.974 14.2049 308.75C13.8269 308.526 13.3929 308.414 12.9029 308.414C12.4269 308.414 11.9929 308.526 11.6009 308.75C11.2089 308.974 10.8939 309.282 10.6559 309.674C10.4319 310.052 10.3199 310.507 10.3199 311.039C10.3199 311.543 10.4319 311.998 10.6559 312.404C10.8939 312.81 11.2089 313.125 11.6009 313.349C11.9929 313.559 12.4269 313.664 12.9029 313.664Z" fill="#484848"/>
<path d="M62.2834 262.724C61.0374 262.724 59.9454 262.388 59.0074 261.716C58.0694 261.044 57.3344 260.099 56.8024 258.881C56.2844 257.663 56.0254 256.249 56.0254 254.639C56.0254 253.015 56.2844 251.601 56.8024 250.397C57.3204 249.193 58.0484 248.255 58.9864 247.583C59.9244 246.911 61.0164 246.575 62.2624 246.575C63.5364 246.575 64.6354 246.911 65.5594 247.583C66.4974 248.255 67.2324 249.2 67.7644 250.418C68.2964 251.622 68.5624 253.029 68.5624 254.639C68.5624 256.249 68.2964 257.663 67.7644 258.881C67.2464 260.085 66.5184 261.03 65.5804 261.716C64.6424 262.388 63.5434 262.724 62.2834 262.724ZM62.3044 260.12C63.0184 260.12 63.6274 259.903 64.1314 259.469C64.6354 259.021 65.0204 258.391 65.2864 257.579C65.5664 256.753 65.7064 255.773 65.7064 254.639C65.7064 253.505 65.5664 252.532 65.2864 251.72C65.0204 250.894 64.6284 250.264 64.1104 249.83C63.6064 249.396 62.9904 249.179 62.2624 249.179C61.5624 249.179 60.9604 249.396 60.4564 249.83C59.9524 250.264 59.5604 250.894 59.2804 251.72C59.0144 252.532 58.8814 253.505 58.8814 254.639C58.8814 255.759 59.0144 256.732 59.2804 257.558C59.5604 258.37 59.9524 259 60.4564 259.448C60.9744 259.896 61.5904 260.12 62.3044 260.12Z" fill="#484848"/>
<path d="M47.4152 262.724C46.1692 262.724 45.0772 262.388 44.1392 261.716C43.2012 261.044 42.4662 260.099 41.9342 258.881C41.4162 257.663 41.1572 256.249 41.1572 254.639C41.1572 253.015 41.4162 251.601 41.9342 250.397C42.4522 249.193 43.1802 248.255 44.1182 247.583C45.0562 246.911 46.1482 246.575 47.3942 246.575C48.6682 246.575 49.7672 246.911 50.6912 247.583C51.6292 248.255 52.3642 249.2 52.8962 250.418C53.4282 251.622 53.6942 253.029 53.6942 254.639C53.6942 256.249 53.4282 257.663 52.8962 258.881C52.3782 260.085 51.6502 261.03 50.7122 261.716C49.7742 262.388 48.6752 262.724 47.4152 262.724ZM47.4362 260.12C48.1502 260.12 48.7592 259.903 49.2632 259.469C49.7672 259.021 50.1522 258.391 50.4182 257.579C50.6982 256.753 50.8382 255.773 50.8382 254.639C50.8382 253.505 50.6982 252.532 50.4182 251.72C50.1522 250.894 49.7602 250.264 49.2422 249.83C48.7382 249.396 48.1222 249.179 47.3942 249.179C46.6942 249.179 46.0922 249.396 45.5882 249.83C45.0842 250.264 44.6922 250.894 44.4122 251.72C44.1462 252.532 44.0132 253.505 44.0132 254.639C44.0132 255.759 44.1462 256.732 44.4122 257.558C44.6922 258.37 45.0842 259 45.5882 259.448C46.1062 259.896 46.7222 260.12 47.4362 260.12Z" fill="#484848"/>
<path d="M32.5471 262.724C31.3011 262.724 30.2091 262.388 29.2711 261.716C28.3331 261.044 27.5981 260.099 27.0661 258.881C26.5481 257.663 26.2891 256.249 26.2891 254.639C26.2891 253.015 26.5481 251.601 27.0661 250.397C27.5841 249.193 28.3121 248.255 29.2501 247.583C30.1881 246.911 31.2801 246.575 32.5261 246.575C33.8001 246.575 34.8991 246.911 35.8231 247.583C36.7611 248.255 37.4961 249.2 38.0281 250.418C38.5601 251.622 38.8261 253.029 38.8261 254.639C38.8261 256.249 38.5601 257.663 38.0281 258.881C37.5101 260.085 36.7821 261.03 35.8441 261.716C34.9061 262.388 33.8071 262.724 32.5471 262.724ZM32.5681 260.12C33.2821 260.12 33.8911 259.903 34.3951 259.469C34.8991 259.021 35.2841 258.391 35.5501 257.579C35.8301 256.753 35.9701 255.773 35.9701 254.639C35.9701 253.505 35.8301 252.532 35.5501 251.72C35.2841 250.894 34.8921 250.264 34.3741 249.83C33.8701 249.396 33.2541 249.179 32.5261 249.179C31.8261 249.179 31.2241 249.396 30.7201 249.83C30.2161 250.264 29.8241 250.894 29.5441 251.72C29.2781 252.532 29.1451 253.505 29.1451 254.639C29.1451 255.759 29.2781 256.732 29.5441 257.558C29.8241 258.37 30.2161 259 30.7201 259.448C31.2381 259.896 31.8541 260.12 32.5681 260.12Z" fill="#484848"/>
<path d="M20.9647 252.77L20.6077 246.827H23.0857L22.7497 252.77H20.9647Z" fill="#484848"/>
<path d="M11.959 262.724C10.825 262.724 9.83804 262.514 8.99804 262.094C8.17204 261.66 7.52804 261.079 7.06604 260.351C6.61804 259.623 6.39404 258.825 6.39404 257.957C6.39404 256.935 6.66704 256.074 7.21304 255.374C7.75904 254.66 8.55004 254.135 9.58604 253.799L9.41804 254.492C8.67604 254.254 8.08804 253.792 7.65404 253.106C7.23404 252.42 7.02404 251.664 7.02404 250.838C7.02404 250.012 7.23404 249.277 7.65404 248.633C8.07404 247.989 8.65504 247.485 9.39704 247.121C10.139 246.757 10.993 246.575 11.959 246.575C12.911 246.575 13.751 246.757 14.479 247.121C15.221 247.485 15.802 247.989 16.222 248.633C16.656 249.277 16.873 250.012 16.873 250.838C16.873 251.678 16.656 252.441 16.222 253.127C15.802 253.799 15.221 254.261 14.479 254.513L14.332 253.778C15.368 254.142 16.159 254.681 16.705 255.395C17.251 256.095 17.524 256.956 17.524 257.978C17.524 258.846 17.293 259.644 16.831 260.372C16.383 261.086 15.739 261.66 14.899 262.094C14.073 262.514 13.093 262.724 11.959 262.724ZM11.959 260.309C12.505 260.309 12.981 260.211 13.387 260.015C13.793 259.805 14.108 259.518 14.332 259.154C14.556 258.776 14.668 258.349 14.668 257.873C14.668 257.383 14.556 256.963 14.332 256.613C14.108 256.249 13.793 255.969 13.387 255.773C12.981 255.563 12.505 255.458 11.959 255.458C11.413 255.458 10.937 255.563 10.531 255.773C10.139 255.969 9.83104 256.249 9.60704 256.613C9.38304 256.963 9.27104 257.383 9.27104 257.873C9.27104 258.349 9.38304 258.776 9.60704 259.154C9.83104 259.518 10.139 259.805 10.531 260.015C10.937 260.211 11.413 260.309 11.959 260.309ZM11.959 253.043C12.365 253.043 12.722 252.952 13.03 252.77C13.338 252.588 13.576 252.35 13.744 252.056C13.926 251.748 14.017 251.398 14.017 251.006C14.017 250.614 13.926 250.271 13.744 249.977C13.576 249.669 13.338 249.431 13.03 249.263C12.722 249.081 12.365 248.99 11.959 248.99C11.553 248.99 11.189 249.081 10.867 249.263C10.559 249.431 10.314 249.669 10.132 249.977C9.96404 250.271 9.88004 250.614 9.88004 251.006C9.88004 251.398 9.96404 251.748 10.132 252.056C10.314 252.35 10.559 252.588 10.867 252.77C11.189 252.952 11.553 253.043 11.959 253.043Z" fill="#484848"/>
<path d="M66.8073 208.277C65.5613 208.277 64.4693 207.941 63.5313 207.269C62.5933 206.597 61.8583 205.652 61.3263 204.434C60.8083 203.216 60.5493 201.802 60.5493 200.192C60.5493 198.568 60.8083 197.154 61.3263 195.95C61.8443 194.746 62.5723 193.808 63.5103 193.136C64.4483 192.464 65.5403 192.128 66.7863 192.128C68.0603 192.128 69.1593 192.464 70.0833 193.136C71.0213 193.808 71.7563 194.753 72.2883 195.971C72.8203 197.175 73.0863 198.582 73.0863 200.192C73.0863 201.802 72.8203 203.216 72.2883 204.434C71.7703 205.638 71.0423 206.583 70.1043 207.269C69.1663 207.941 68.0673 208.277 66.8073 208.277ZM66.8283 205.673C67.5423 205.673 68.1513 205.456 68.6553 205.022C69.1593 204.574 69.5443 203.944 69.8103 203.132C70.0903 202.306 70.2303 201.326 70.2303 200.192C70.2303 199.058 70.0903 198.085 69.8103 197.273C69.5443 196.447 69.1523 195.817 68.6343 195.383C68.1303 194.949 67.5143 194.732 66.7863 194.732C66.0863 194.732 65.4843 194.949 64.9803 195.383C64.4763 195.817 64.0843 196.447 63.8043 197.273C63.5383 198.085 63.4053 199.058 63.4053 200.192C63.4053 201.312 63.5383 202.285 63.8043 203.111C64.0843 203.923 64.4763 204.553 64.9803 205.001C65.4983 205.449 66.1143 205.673 66.8283 205.673Z" fill="#484848"/>
<path d="M51.9392 208.277C50.6932 208.277 49.6012 207.941 48.6632 207.269C47.7252 206.597 46.9902 205.652 46.4582 204.434C45.9402 203.216 45.6812 201.802 45.6812 200.192C45.6812 198.568 45.9402 197.154 46.4582 195.95C46.9762 194.746 47.7042 193.808 48.6422 193.136C49.5802 192.464 50.6722 192.128 51.9182 192.128C53.1922 192.128 54.2912 192.464 55.2152 193.136C56.1532 193.808 56.8882 194.753 57.4202 195.971C57.9522 197.175 58.2182 198.582 58.2182 200.192C58.2182 201.802 57.9522 203.216 57.4202 204.434C56.9022 205.638 56.1742 206.583 55.2362 207.269C54.2982 207.941 53.1992 208.277 51.9392 208.277ZM51.9602 205.673C52.6742 205.673 53.2832 205.456 53.7872 205.022C54.2912 204.574 54.6762 203.944 54.9422 203.132C55.2222 202.306 55.3622 201.326 55.3622 200.192C55.3622 199.058 55.2222 198.085 54.9422 197.273C54.6762 196.447 54.2842 195.817 53.7662 195.383C53.2622 194.949 52.6462 194.732 51.9182 194.732C51.2182 194.732 50.6162 194.949 50.1122 195.383C49.6082 195.817 49.2162 196.447 48.9362 197.273C48.6702 198.085 48.5372 199.058 48.5372 200.192C48.5372 201.312 48.6702 202.285 48.9362 203.111C49.2162 203.923 49.6082 204.553 50.1122 205.001C50.6302 205.449 51.2462 205.673 51.9602 205.673Z" fill="#484848"/>
<path d="M37.071 208.277C35.825 208.277 34.733 207.941 33.795 207.269C32.857 206.597 32.122 205.652 31.59 204.434C31.072 203.216 30.813 201.802 30.813 200.192C30.813 198.568 31.072 197.154 31.59 195.95C32.108 194.746 32.836 193.808 33.774 193.136C34.712 192.464 35.804 192.128 37.05 192.128C38.324 192.128 39.423 192.464 40.347 193.136C41.285 193.808 42.02 194.753 42.552 195.971C43.084 197.175 43.35 198.582 43.35 200.192C43.35 201.802 43.084 203.216 42.552 204.434C42.034 205.638 41.306 206.583 40.368 207.269C39.43 207.941 38.331 208.277 37.071 208.277ZM37.092 205.673C37.806 205.673 38.415 205.456 38.919 205.022C39.423 204.574 39.808 203.944 40.074 203.132C40.354 202.306 40.494 201.326 40.494 200.192C40.494 199.058 40.354 198.085 40.074 197.273C39.808 196.447 39.416 195.817 38.898 195.383C38.394 194.949 37.778 194.732 37.05 194.732C36.35 194.732 35.748 194.949 35.244 195.383C34.74 195.817 34.348 196.447 34.068 197.273C33.802 198.085 33.669 199.058 33.669 200.192C33.669 201.312 33.802 202.285 34.068 203.111C34.348 203.923 34.74 204.553 35.244 205.001C35.762 205.449 36.378 205.673 37.092 205.673Z" fill="#484848"/>
<path d="M25.4886 198.323L25.1316 192.38H27.6096L27.2736 198.323H25.4886Z" fill="#484848"/>
<path d="M15.6813 208.277C14.4353 208.277 13.3433 207.941 12.4053 207.269C11.4673 206.597 10.7323 205.652 10.2003 204.434C9.68234 203.216 9.42334 201.802 9.42334 200.192C9.42334 198.568 9.68234 197.154 10.2003 195.95C10.7183 194.746 11.4463 193.808 12.3843 193.136C13.3223 192.464 14.4143 192.128 15.6603 192.128C16.9343 192.128 18.0333 192.464 18.9573 193.136C19.8953 193.808 20.6303 194.753 21.1623 195.971C21.6943 197.175 21.9603 198.582 21.9603 200.192C21.9603 201.802 21.6943 203.216 21.1623 204.434C20.6443 205.638 19.9163 206.583 18.9783 207.269C18.0403 207.941 16.9413 208.277 15.6813 208.277ZM15.7023 205.673C16.4163 205.673 17.0253 205.456 17.5293 205.022C18.0333 204.574 18.4183 203.944 18.6843 203.132C18.9643 202.306 19.1043 201.326 19.1043 200.192C19.1043 199.058 18.9643 198.085 18.6843 197.273C18.4183 196.447 18.0263 195.817 17.5083 195.383C17.0043 194.949 16.3883 194.732 15.6603 194.732C14.9603 194.732 14.3583 194.949 13.8543 195.383C13.3503 195.817 12.9583 196.447 12.6783 197.273C12.4123 198.085 12.2793 199.058 12.2793 200.192C12.2793 201.312 12.4123 202.285 12.6783 203.111C12.9583 203.923 13.3503 204.553 13.8543 205.001C14.3723 205.449 14.9883 205.673 15.7023 205.673Z" fill="#484848"/>
<path d="M3.41072 208.025V194.816H0.386719V192.38H6.26672V208.025H3.41072Z" fill="#484848"/>
<path d="M66.5534 153.831C65.3074 153.831 64.2154 153.495 63.2774 152.823C62.3394 152.151 61.6044 151.206 61.0724 149.988C60.5544 148.77 60.2954 147.356 60.2954 145.746C60.2954 144.122 60.5544 142.708 61.0724 141.504C61.5904 140.3 62.3184 139.362 63.2564 138.69C64.1944 138.018 65.2864 137.682 66.5324 137.682C67.8064 137.682 68.9054 138.018 69.8294 138.69C70.7674 139.362 71.5024 140.307 72.0344 141.525C72.5664 142.729 72.8324 144.136 72.8324 145.746C72.8324 147.356 72.5664 148.77 72.0344 149.988C71.5164 151.192 70.7884 152.137 69.8504 152.823C68.9124 153.495 67.8134 153.831 66.5534 153.831ZM66.5744 151.227C67.2884 151.227 67.8974 151.01 68.4014 150.576C68.9054 150.128 69.2904 149.498 69.5564 148.686C69.8364 147.86 69.9764 146.88 69.9764 145.746C69.9764 144.612 69.8364 143.639 69.5564 142.827C69.2904 142.001 68.8984 141.371 68.3804 140.937C67.8764 140.503 67.2604 140.286 66.5324 140.286C65.8324 140.286 65.2304 140.503 64.7264 140.937C64.2224 141.371 63.8304 142.001 63.5504 142.827C63.2844 143.639 63.1514 144.612 63.1514 145.746C63.1514 146.866 63.2844 147.839 63.5504 148.665C63.8304 149.477 64.2224 150.107 64.7264 150.555C65.2444 151.003 65.8604 151.227 66.5744 151.227Z" fill="#484848"/>
<path d="M51.6852 153.831C50.4392 153.831 49.3472 153.495 48.4092 152.823C47.4712 152.151 46.7362 151.206 46.2042 149.988C45.6862 148.77 45.4272 147.356 45.4272 145.746C45.4272 144.122 45.6862 142.708 46.2042 141.504C46.7222 140.3 47.4502 139.362 48.3882 138.69C49.3262 138.018 50.4182 137.682 51.6642 137.682C52.9382 137.682 54.0373 138.018 54.9613 138.69C55.8992 139.362 56.6342 140.307 57.1662 141.525C57.6982 142.729 57.9642 144.136 57.9642 145.746C57.9642 147.356 57.6982 148.77 57.1662 149.988C56.6482 151.192 55.9202 152.137 54.9822 152.823C54.0442 153.495 52.9452 153.831 51.6852 153.831ZM51.7062 151.227C52.4202 151.227 53.0292 151.01 53.5332 150.576C54.0372 150.128 54.4222 149.498 54.6882 148.686C54.9682 147.86 55.1082 146.88 55.1082 145.746C55.1082 144.612 54.9682 143.639 54.6882 142.827C54.4222 142.001 54.0302 141.371 53.5122 140.937C53.0082 140.503 52.3922 140.286 51.6642 140.286C50.9642 140.286 50.3622 140.503 49.8582 140.937C49.3542 141.371 48.9622 142.001 48.6822 142.827C48.4162 143.639 48.2832 144.612 48.2832 145.746C48.2832 146.866 48.4162 147.839 48.6822 148.665C48.9622 149.477 49.3542 150.107 49.8582 150.555C50.3762 151.003 50.9922 151.227 51.7062 151.227Z" fill="#484848"/>
<path d="M36.8171 153.831C35.5711 153.831 34.4791 153.495 33.5411 152.823C32.6031 152.151 31.8681 151.206 31.3361 149.988C30.8181 148.77 30.5591 147.356 30.5591 145.746C30.5591 144.122 30.8181 142.708 31.3361 141.504C31.8541 140.3 32.5821 139.362 33.5201 138.69C34.4581 138.018 35.5501 137.682 36.7961 137.682C38.0701 137.682 39.1691 138.018 40.0931 138.69C41.0311 139.362 41.7661 140.307 42.2981 141.525C42.8301 142.729 43.0961 144.136 43.0961 145.746C43.0961 147.356 42.8301 148.77 42.2981 149.988C41.7801 151.192 41.0521 152.137 40.1141 152.823C39.1761 153.495 38.0771 153.831 36.8171 153.831ZM36.8381 151.227C37.5521 151.227 38.1611 151.01 38.6651 150.576C39.1691 150.128 39.5541 149.498 39.8201 148.686C40.1001 147.86 40.2401 146.88 40.2401 145.746C40.2401 144.612 40.1001 143.639 39.8201 142.827C39.5541 142.001 39.1621 141.371 38.6441 140.937C38.1401 140.503 37.5241 140.286 36.7961 140.286C36.0961 140.286 35.4941 140.503 34.9901 140.937C34.4861 141.371 34.0941 142.001 33.8141 142.827C33.5481 143.639 33.4151 144.612 33.4151 145.746C33.4151 146.866 33.5481 147.839 33.8141 148.665C34.0941 149.477 34.4861 150.107 34.9901 150.555C35.5081 151.003 36.1241 151.227 36.8381 151.227Z" fill="#484848"/>
<path d="M25.2347 143.877L24.8777 137.934H27.3557L27.0197 143.877H25.2347Z" fill="#484848"/>
<path d="M11.2974 153.579V151.416L15.5394 146.985C16.3794 146.103 17.0234 145.403 17.4714 144.885C17.9334 144.353 18.2554 143.898 18.4374 143.52C18.6194 143.142 18.7104 142.757 18.7104 142.365C18.7104 141.707 18.5004 141.189 18.0804 140.811C17.6744 140.433 17.1494 140.244 16.5054 140.244C15.8334 140.244 15.2524 140.44 14.7624 140.832C14.2724 141.21 13.9154 141.77 13.6914 142.512L11.1924 141.735C11.3604 140.909 11.7034 140.195 12.2214 139.593C12.7394 138.977 13.3694 138.508 14.1114 138.186C14.8674 137.85 15.6654 137.682 16.5054 137.682C17.5134 137.682 18.3954 137.864 19.1514 138.228C19.9214 138.592 20.5164 139.103 20.9364 139.761C21.3704 140.419 21.5874 141.189 21.5874 142.071C21.5874 142.631 21.4824 143.184 21.2724 143.73C21.0624 144.276 20.7474 144.836 20.3274 145.41C19.9074 145.97 19.3614 146.6 18.6894 147.3L15.0144 151.164H21.7974V153.579H11.2974Z" fill="#484848"/>
<path d="M5.4947 153.579V140.37H2.4707V137.934H8.3507V153.579H5.4947Z" fill="#484848"/>
<path d="M66.3376 99.3851C65.0916 99.3851 63.9996 99.0491 63.0616 98.3771C62.1236 97.7051 61.3886 96.7601 60.8566 95.5421C60.3386 94.3241 60.0796 92.9101 60.0796 91.3001C60.0796 89.6761 60.3386 88.2621 60.8566 87.0581C61.3746 85.8541 62.1026 84.9161 63.0406 84.2441C63.9786 83.5721 65.0706 83.2361 66.3166 83.2361C67.5906 83.2361 68.6896 83.5721 69.6136 84.2441C70.5516 84.9161 71.2866 85.8611 71.8186 87.0791C72.3506 88.2831 72.6166 89.6901 72.6166 91.3001C72.6166 92.9101 72.3506 94.3241 71.8186 95.5421C71.3006 96.7461 70.5726 97.6911 69.6346 98.3771C68.6966 99.0491 67.5976 99.3851 66.3376 99.3851ZM66.3586 96.7811C67.0726 96.7811 67.6816 96.5641 68.1856 96.1301C68.6896 95.6821 69.0746 95.0521 69.3406 94.2401C69.6206 93.4141 69.7606 92.4341 69.7606 91.3001C69.7606 90.1661 69.6206 89.1931 69.3406 88.3811C69.0746 87.5551 68.6826 86.9251 68.1646 86.4911C67.6606 86.0571 67.0446 85.8401 66.3166 85.8401C65.6166 85.8401 65.0146 86.0571 64.5106 86.4911C64.0066 86.9251 63.6146 87.5551 63.3346 88.3811C63.0686 89.1931 62.9356 90.1661 62.9356 91.3001C62.9356 92.4201 63.0686 93.3931 63.3346 94.2191C63.6146 95.0311 64.0066 95.6611 64.5106 96.1091C65.0286 96.5571 65.6446 96.7811 66.3586 96.7811Z" fill="#484848"/>
<path d="M51.4694 99.3851C50.2234 99.3851 49.1314 99.0491 48.1934 98.3771C47.2554 97.7051 46.5204 96.7601 45.9884 95.5421C45.4704 94.3241 45.2114 92.9101 45.2114 91.3001C45.2114 89.6761 45.4704 88.2621 45.9884 87.0581C46.5064 85.8541 47.2344 84.9161 48.1724 84.2441C49.1104 83.5721 50.2024 83.2361 51.4484 83.2361C52.7224 83.2361 53.8214 83.5721 54.7454 84.2441C55.6834 84.9161 56.4184 85.8611 56.9504 87.0791C57.4824 88.2831 57.7484 89.6901 57.7484 91.3001C57.7484 92.9101 57.4824 94.3241 56.9504 95.5421C56.4324 96.7461 55.7044 97.6911 54.7664 98.3771C53.8284 99.0491 52.7294 99.3851 51.4694 99.3851ZM51.4904 96.7811C52.2044 96.7811 52.8134 96.5641 53.3174 96.1301C53.8214 95.6821 54.2064 95.0521 54.4724 94.2401C54.7524 93.4141 54.8924 92.4341 54.8924 91.3001C54.8924 90.1661 54.7524 89.1931 54.4724 88.3811C54.2064 87.5551 53.8144 86.9251 53.2964 86.4911C52.7924 86.0571 52.1764 85.8401 51.4484 85.8401C50.7484 85.8401 50.1464 86.0571 49.6424 86.4911C49.1384 86.9251 48.7464 87.5551 48.4664 88.3811C48.2004 89.1931 48.0674 90.1661 48.0674 91.3001C48.0674 92.4201 48.2004 93.3931 48.4664 94.2191C48.7464 95.0311 49.1384 95.6611 49.6424 96.1091C50.1604 96.5571 50.7764 96.7811 51.4904 96.7811Z" fill="#484848"/>
<path d="M36.6013 99.3851C35.3553 99.3851 34.2633 99.0491 33.3253 98.3771C32.3873 97.7051 31.6523 96.7601 31.1203 95.5421C30.6023 94.3241 30.3433 92.9101 30.3433 91.3001C30.3433 89.6761 30.6023 88.2621 31.1203 87.0581C31.6383 85.8541 32.3663 84.9161 33.3043 84.2441C34.2423 83.5721 35.3343 83.2361 36.5803 83.2361C37.8543 83.2361 38.9533 83.5721 39.8773 84.2441C40.8153 84.9161 41.5503 85.8611 42.0823 87.0791C42.6143 88.2831 42.8803 89.6901 42.8803 91.3001C42.8803 92.9101 42.6143 94.3241 42.0823 95.5421C41.5643 96.7461 40.8363 97.6911 39.8983 98.3771C38.9603 99.0491 37.8613 99.3851 36.6013 99.3851ZM36.6223 96.7811C37.3363 96.7811 37.9453 96.5641 38.4493 96.1301C38.9533 95.6821 39.3383 95.0521 39.6043 94.2401C39.8843 93.4141 40.0243 92.4341 40.0243 91.3001C40.0243 90.1661 39.8843 89.1931 39.6043 88.3811C39.3383 87.5551 38.9463 86.9251 38.4283 86.4911C37.9243 86.0571 37.3083 85.8401 36.5803 85.8401C35.8803 85.8401 35.2783 86.0571 34.7743 86.4911C34.2703 86.9251 33.8783 87.5551 33.5983 88.3811C33.3323 89.1931 33.1993 90.1661 33.1993 91.3001C33.1993 92.4201 33.3323 93.3931 33.5983 94.2191C33.8783 95.0311 34.2703 95.6611 34.7743 96.1091C35.2923 96.5571 35.9083 96.7811 36.6223 96.7811Z" fill="#484848"/>
<path d="M25.0189 89.4311L24.6619 83.4881H27.1399L26.8039 89.4311H25.0189Z" fill="#484848"/>
<path d="M16.8436 99.1331V95.6891H9.66162V93.2951L16.6756 83.4881H19.6576V93.2951H21.9466V95.6891H19.6576V99.1331H16.8436ZM11.7616 94.3241L11.2576 93.2951H16.8436V85.7351L17.5786 85.9661L11.7616 94.3241Z" fill="#484848"/>
<path d="M4.06892 99.1331V85.9241H1.04492V83.4881H6.92492V99.1331H4.06892Z" fill="#484848"/>
<path d="M66.5251 44.938C65.2791 44.938 64.1871 44.602 63.2491 43.93C62.3111 43.258 61.5761 42.313 61.0441 41.095C60.5261 39.877 60.2671 38.463 60.2671 36.853C60.2671 35.229 60.5261 33.815 61.0441 32.611C61.5621 31.407 62.2901 30.469 63.2281 29.797C64.1661 29.125 65.2581 28.789 66.5041 28.789C67.7781 28.789 68.8771 29.125 69.8011 29.797C70.7391 30.469 71.4741 31.414 72.0061 32.632C72.5381 33.836 72.8041 35.243 72.8041 36.853C72.8041 38.463 72.5381 39.877 72.0061 41.095C71.4881 42.299 70.7601 43.244 69.8221 43.93C68.8841 44.602 67.7851 44.938 66.5251 44.938ZM66.5461 42.334C67.2601 42.334 67.8691 42.117 68.3731 41.683C68.8771 41.235 69.2621 40.605 69.5281 39.793C69.8081 38.967 69.9481 37.987 69.9481 36.853C69.9481 35.719 69.8081 34.746 69.5281 33.934C69.2621 33.108 68.8701 32.478 68.3521 32.044C67.8481 31.61 67.2321 31.393 66.5041 31.393C65.8041 31.393 65.2021 31.61 64.6981 32.044C64.1941 32.478 63.8021 33.108 63.5221 33.934C63.2561 34.746 63.1231 35.719 63.1231 36.853C63.1231 37.973 63.2561 38.946 63.5221 39.772C63.8021 40.584 64.1941 41.214 64.6981 41.662C65.2161 42.11 65.8321 42.334 66.5461 42.334Z" fill="#484848"/>
<path d="M51.6569 44.938C50.4109 44.938 49.3189 44.602 48.3809 43.93C47.4429 43.258 46.7079 42.313 46.1759 41.095C45.6579 39.877 45.3989 38.463 45.3989 36.853C45.3989 35.229 45.6579 33.815 46.1759 32.611C46.6939 31.407 47.4219 30.469 48.3599 29.797C49.2979 29.125 50.3899 28.789 51.6359 28.789C52.9099 28.789 54.0089 29.125 54.9329 29.797C55.8709 30.469 56.6059 31.414 57.1379 32.632C57.6699 33.836 57.9359 35.243 57.9359 36.853C57.9359 38.463 57.6699 39.877 57.1379 41.095C56.6199 42.299 55.8919 43.244 54.9539 43.93C54.0159 44.602 52.9169 44.938 51.6569 44.938ZM51.6779 42.334C52.3919 42.334 53.0009 42.117 53.5049 41.683C54.0089 41.235 54.3939 40.605 54.6599 39.793C54.9399 38.967 55.0799 37.987 55.0799 36.853C55.0799 35.719 54.9399 34.746 54.6599 33.934C54.3939 33.108 54.0019 32.478 53.4839 32.044C52.9799 31.61 52.3639 31.393 51.6359 31.393C50.9359 31.393 50.3339 31.61 49.8299 32.044C49.3259 32.478 48.9339 33.108 48.6539 33.934C48.3879 34.746 48.2549 35.719 48.2549 36.853C48.2549 37.973 48.3879 38.946 48.6539 39.772C48.9339 40.584 49.3259 41.214 49.8299 41.662C50.3479 42.11 50.9639 42.334 51.6779 42.334Z" fill="#484848"/>
<path d="M36.7888 44.938C35.5428 44.938 34.4508 44.602 33.5128 43.93C32.5748 43.258 31.8398 42.313 31.3078 41.095C30.7898 39.877 30.5308 38.463 30.5308 36.853C30.5308 35.229 30.7898 33.815 31.3078 32.611C31.8258 31.407 32.5538 30.469 33.4918 29.797C34.4298 29.125 35.5218 28.789 36.7678 28.789C38.0418 28.789 39.1408 29.125 40.0648 29.797C41.0028 30.469 41.7378 31.414 42.2698 32.632C42.8018 33.836 43.0678 35.243 43.0678 36.853C43.0678 38.463 42.8018 39.877 42.2698 41.095C41.7518 42.299 41.0238 43.244 40.0858 43.93C39.1478 44.602 38.0488 44.938 36.7888 44.938ZM36.8098 42.334C37.5238 42.334 38.1328 42.117 38.6368 41.683C39.1408 41.235 39.5258 40.605 39.7918 39.793C40.0718 38.967 40.2118 37.987 40.2118 36.853C40.2118 35.719 40.0718 34.746 39.7918 33.934C39.5258 33.108 39.1338 32.478 38.6158 32.044C38.1118 31.61 37.4958 31.393 36.7678 31.393C36.0678 31.393 35.4658 31.61 34.9618 32.044C34.4578 32.478 34.0658 33.108 33.7858 33.934C33.5198 34.746 33.3868 35.719 33.3868 36.853C33.3868 37.973 33.5198 38.946 33.7858 39.772C34.0658 40.584 34.4578 41.214 34.9618 41.662C35.4798 42.11 36.0958 42.334 36.8098 42.334Z" fill="#484848"/>
<path d="M25.2064 34.984L24.8494 29.041H27.3274L26.9914 34.984H25.2064Z" fill="#484848"/>
<path d="M16.5425 44.938C15.4785 44.938 14.5335 44.714 13.7075 44.266C12.8955 43.804 12.2585 43.188 11.7965 42.418C11.3345 41.634 11.1035 40.745 11.1035 39.751C11.1035 39.247 11.1525 38.743 11.2505 38.239C11.3625 37.735 11.5585 37.196 11.8385 36.622C12.1325 36.048 12.5525 35.411 13.0985 34.711L17.4665 29.041H20.8685L15.5555 35.866L15.0935 35.362C15.2895 35.208 15.4925 35.089 15.7025 35.005C15.9125 34.907 16.1225 34.837 16.3325 34.795C16.5565 34.753 16.7875 34.732 17.0255 34.732C17.9775 34.732 18.8245 34.949 19.5665 35.383C20.3085 35.817 20.8895 36.412 21.3095 37.168C21.7435 37.91 21.9605 38.75 21.9605 39.688C21.9605 40.696 21.7295 41.599 21.2675 42.397C20.8055 43.181 20.1615 43.804 19.3355 44.266C18.5235 44.714 17.5925 44.938 16.5425 44.938ZM16.5425 42.355C17.0185 42.355 17.4455 42.25 17.8235 42.04C18.2155 41.816 18.5235 41.501 18.7475 41.095C18.9855 40.689 19.1045 40.234 19.1045 39.73C19.1045 39.198 18.9855 38.743 18.7475 38.365C18.5235 37.973 18.2225 37.665 17.8445 37.441C17.4665 37.217 17.0325 37.105 16.5425 37.105C16.0665 37.105 15.6325 37.217 15.2405 37.441C14.8485 37.665 14.5335 37.973 14.2955 38.365C14.0715 38.743 13.9595 39.198 13.9595 39.73C13.9595 40.234 14.0715 40.689 14.2955 41.095C14.5335 41.501 14.8485 41.816 15.2405 42.04C15.6325 42.25 16.0665 42.355 16.5425 42.355Z" fill="#484848"/>
<path d="M5.56892 44.686V31.477H2.54492V29.041H8.42492V44.686H5.56892Z" fill="#484848"/>
<path d="M324.832 180.411H206.711V484.019H324.832V180.411Z" fill="#0F57A0"/>
<path d="M324.832 523.7H206.711V575.378H324.832V523.7Z" fill="#0F57A0"/>
<path d="M512.165 523.7H394.044V575.378H512.165V523.7Z" fill="#FAB02E"/>
<path d="M512.165 185.025H394.044V484.019H512.165V185.025Z" fill="#FAB02E"/>
<path d="M708.725 523.7H590.604V575.378H708.725V523.7Z" fill="#1EA341"/>
<path d="M708.725 89.9751H590.604V484.019H708.725V89.9751Z" fill="#1EA341"/>
<path d="M1104.62 523.7H986.494V575.378H1104.62V523.7Z" fill="#1EA341"/>
<path d="M1104.62 56.292H986.494V484.019H1104.62V56.292Z" fill="#1EA341"/>
<path d="M1303.11 523.7H1184.99V575.378H1303.11V523.7Z" fill="#0F57A0"/>
<path d="M1303.11 89.9751H1184.99V484.019H1303.11V89.9751Z" fill="#0F57A0"/>
<path d="M905.287 523.7H787.166V575.378H905.287V523.7Z" fill="#AFB1B7"/>
<path d="M905.287 169.337H787.166V484.019H905.287V169.337Z" fill="#AFB1B7"/>
<path d="M1389.35 486.787H97.731V484.019H1389.35V486.787Z" fill="#D6D6D6"/>
</svg>
