<svg xmlns="http://www.w3.org/2000/svg" width="79.001" height="55.263" viewBox="0 0 79.001 55.263">
  <path id="email_icon" d="M-1348.439,9141.264h-62.123c-.267,0-.544-.014-.824-.041-.075-.009-.141-.019-.2-.03l-.069-.011-.067-.01-.1-.012-.079-.011h-.009c-.1-.015-.191-.028-.281-.046s-.195-.043-.3-.07l-.066-.018-.042-.011-.052-.013-.052-.012c-.1-.024-.187-.046-.271-.071-.116-.036-.234-.076-.369-.126l-.06-.021-.01,0-.081-.028-.066-.023-.012,0-.037-.014-.114-.043c-.14-.059-.288-.126-.441-.2l-.078-.036c-.073-.033-.137-.063-.2-.1-.143-.076-.284-.157-.445-.255l-.071-.044-.029-.018c-.047-.027-.092-.055-.133-.081-.142-.092-.277-.187-.452-.316l-.057-.043c-.047-.033-.09-.065-.133-.1-.138-.109-.28-.229-.445-.379l-.016-.015c-.018-.015-.036-.031-.055-.045a.111.111,0,0,0-.018-.017l0,0a.256.256,0,0,0-.032-.034l0,0a8.368,8.368,0,0,1-2.664-6.138v-38.379a8.356,8.356,0,0,1,2.664-6.135l0,0a.3.3,0,0,0,.036-.038l.015-.013,0,0c.02-.015.038-.03.056-.046l.015-.014c.172-.156.309-.272.445-.379.044-.032.087-.064.131-.1l.06-.044c.175-.13.31-.225.452-.316.05-.032.108-.066.165-.1l.069-.042c.156-.095.306-.181.447-.254.043-.022.089-.044.136-.066l.063-.03.078-.037.065-.03c.122-.058.249-.117.376-.169.052-.022.109-.042.159-.06l.038-.014.033-.012.025-.009.021-.008.046-.016.06-.021.072-.025c.1-.037.2-.072.3-.1.074-.022.155-.044.271-.071l.06-.016.043-.01.028-.007.028-.007.055-.014c.106-.028.2-.051.3-.071s.179-.031.3-.047l.073-.011.092-.014c.027,0,.057-.007.092-.014l.023,0,.023,0c.063-.01.128-.02.2-.027.28-.027.557-.041.824-.041h62.123c.269,0,.546.014.824.041.073.008.137.017.2.027l.135.021.092.012.112.017.011,0c.083.012.171.024.258.041s.152.035.232.055l.057.014.028.008c.028.007.055.014.082.022l.069.016.035.008.03.008c.095.023.176.045.247.065.1.03.211.067.358.121l.154.056.019.007c.076.025.151.052.222.08.107.045.218.1.326.147l.009,0,.1.046.076.034c.063.029.132.063.211.1.126.066.257.141.438.25l.067.039.045.026c.043.025.088.053.132.081.13.085.276.188.445.313l.06.044.006,0c.044.032.087.064.129.1.127.1.267.218.443.377l.015.013a.654.654,0,0,0,.057.047.1.1,0,0,1,.017.014l.006.007.011.011.021.023,0,0a8.349,8.349,0,0,1,2.664,6.135v38.379a8.364,8.364,0,0,1-2.666,6.14l-.007.007-.015.017-.017.018-.009.009a.04.04,0,0,1-.009.008l-.071.06c-.166.15-.307.27-.443.376-.038.031-.08.063-.138.1l-.057.044c-.086.063-.264.193-.445.312-.05.033-.105.067-.174.105l-.067.041c-.164.1-.3.178-.441.251-.066.036-.138.068-.208.1l0,0-.073.034c-.121.059-.279.134-.434.2-.068.029-.14.055-.2.076l-.038.014-.154.055-.074.026c-.1.035-.19.068-.284.1-.057.019-.116.033-.178.048l-.017,0-.082.021c-.031.006-.065.015-.1.025l-.028.007-.028.007-.054.014-.069.018-.04.01c-.063.016-.123.029-.183.041-.1.019-.2.032-.3.047h-.009l-.068.01-.092.014c-.03,0-.058.008-.087.013l-.048.008c-.074.012-.14.022-.2.028C-1347.892,9141.25-1348.169,9141.264-1348.439,9141.264Zm-38.252-25.255-25.424,21.526,1.276.087.051,0c.057,0,.134.009.215.009h62.146c.081,0,.154,0,.214-.009l.053,0,1.276-.087-25.424-21.526-6.018,5.1a1.806,1.806,0,0,1-1.172.432,1.815,1.815,0,0,1-1.172-.432l-6.018-5.1Zm42.545-23.843h0l-25.355,21.466,25.355,21.467.241-.684a4.793,4.793,0,0,0,.275-1.595v-38.379a4.752,4.752,0,0,0-.275-1.59l-.241-.686Zm-70.709,0h0l-.241.686a4.809,4.809,0,0,0-.275,1.59v38.379a4.85,4.85,0,0,0,.275,1.595l.241.684,25.355-21.467-25.355-21.466Zm4.286-2.536c-.083,0-.156,0-.218.009l-.05,0-1.278.087,32.615,27.613,32.615-27.613-1.276-.087-.053,0c-.059,0-.137-.009-.22-.009l-.053,0-62.071,0Z" transform="translate(1419.001 -9086.001)" fill="#1ea341"/>
</svg>
