<svg xmlns="http://www.w3.org/2000/svg" width="54.999" height="73.359" viewBox="0 0 54.999 73.359">
  <path id="location_icon" d="M-3628,19297.357a1.071,1.071,0,0,1-.832-.387c-1.066-1.27-26.167-31.258-26.167-45.508,0-14.613,12.09-26.465,27-26.465s27,11.852,27,26.465c0,14.25-25.1,44.246-26.163,45.512a1.086,1.086,0,0,1-.82.383Zm-24.839-45.895c0,12.1,20.426,37.75,24.839,43.156,4.419-5.406,24.839-31.059,24.839-43.156a24.625,24.625,0,0,0-24.839-24.348A24.625,24.625,0,0,0-3652.841,19251.463Zm8.639,0a16.039,16.039,0,0,1,16.2-15.875,16.039,16.039,0,0,1,16.2,15.875,16.059,16.059,0,0,1-16.2,15.875A16.042,16.042,0,0,1-3644.2,19251.463Zm2.16,0a13.9,13.9,0,0,0,14.041,13.758,13.9,13.9,0,0,0,14.041-13.758,13.916,13.916,0,0,0-14.041-13.758A13.9,13.9,0,0,0-3642.042,19251.463Z" transform="translate(3655.5 -19224.498)" fill="#1ea341" stroke="#1ea341" stroke-width="1"/>
</svg>
