<svg xmlns="http://www.w3.org/2000/svg" width="212.111" height="59.162" viewBox="0 0 212.111 59.162">
  <g id="logo" transform="translate(215 116)">
    <path id="Shape" d="M-167.213-58.523H-185.8l-14.255-22.1v22.1H-215V-116h23.254a22.855,22.855,0,0,1,8.375,1.4,16.411,16.411,0,0,1,5.911,3.852,16.55,16.55,0,0,1,3.509,5.661,19.832,19.832,0,0,1,1.185,6.862,16.926,16.926,0,0,1-3.119,10.637,15.951,15.951,0,0,1-9.358,5.521Zm-32.846-31.785h2.823a10.913,10.913,0,0,0,6.784-1.825,6.24,6.24,0,0,0,2.355-5.256,6.236,6.236,0,0,0-2.355-5.272,10.913,10.913,0,0,0-6.784-1.825h-2.823Z" transform="translate(0 0)" fill="#1ea341"/>
    <path id="Path" d="M-94.7-61.347v-54.54L-117.35-88.843Z" transform="translate(54.648 0.063)" fill="#0f57a0"/>
    <path id="Path_00000101788744218259842810000011706156731409308065_" d="M-108.08-115.947h-18.17v23.628Z" transform="translate(49.667 0.03)" fill="#0f57a0"/>
    <path id="Path_00000156587562726566903500000015885705095107869865_" d="M-124.917-115.947H-155.33c.639.2,1.295.406,1.918.639a30.4,30.4,0,0,1,10.091,6.441,29.389,29.389,0,0,1,6.6,9.654,29.993,29.993,0,0,1,2.371,11.931,29.972,29.972,0,0,1-2.371,11.916,29.389,29.389,0,0,1-6.6,9.654,30.4,30.4,0,0,1-10.091,6.441c-.624.234-1.279.437-1.918.639h30.413Z" transform="translate(33.393 0.03)" fill="#0f57a0"/>
    <path id="Path_00000044875789101991411510000007680492299258805380_" d="M-173.916-77.553a29.717,29.717,0,0,1-6.55-9.654,28.849,28.849,0,0,1-2.043-7.58v24.315h20.556c-.639-.2-1.279-.406-1.9-.639a30.236,30.236,0,0,1-10.06-6.441Z" transform="translate(18.182 11.872)" fill="#0f57a0"/>
    <path id="Path_00000120538939076974358890000018059219010510851209_" d="M-140.271-91.866a15.436,15.436,0,0,0-1.294-6.332,16.047,16.047,0,0,0-3.54-5.038,16.752,16.752,0,0,0-17.624-3.338,15.938,15.938,0,0,0-5.147,3.306,16.136,16.136,0,0,0-3.494,5.038,15.183,15.183,0,0,0-1.31,6.332,15.16,15.16,0,0,0,1.31,6.317,15.6,15.6,0,0,0,8.64,8.344,16.642,16.642,0,0,0,17.624-3.275,15.856,15.856,0,0,0,3.556-5.038,15.4,15.4,0,0,0,1.279-6.317Z" transform="translate(23.683 4.614)" fill="#0f57a0"/>
    <path id="Path_00000070812887305546297740000005416514868879627937_" d="M-173.928-108.866a30.286,30.286,0,0,1,10.06-6.441c.624-.234,1.263-.437,1.9-.639H-182.49v24.315a28.969,28.969,0,0,1,2.043-7.58,29.72,29.72,0,0,1,6.519-9.654Z" transform="translate(18.194 0.03)" fill="#0f57a0"/>
    <path id="Path_00000029730362896267531430000002248864360536020130_" d="M-126.25-95.127v24.845h19.386Z" transform="translate(49.667 11.681)" fill="#0f57a0"/>
    <path id="Path_00000026846763302011966200000014165861720804324751_" d="M-66.9-116v39.864a35.8,35.8,0,0,1-.265,4.679,14.674,14.674,0,0,1-.873,3.665,16.551,16.551,0,0,1-2.7,4.461A17.276,17.276,0,0,1-74.7-59.85a20.245,20.245,0,0,1-5.069,2.2,20.556,20.556,0,0,1-5.833.811q-9.217,0-15.019-8.469l9.763-9.982a8.026,8.026,0,0,0,1.669,4.117,4.069,4.069,0,0,0,3.213,1.56q4.195,0,4.2-6.644V-116H-66.9Z" transform="translate(64.011 0.002)" fill="#fab02e"/>
  </g>
</svg>
