<svg xmlns="http://www.w3.org/2000/svg" xmlns:xlink="http://www.w3.org/1999/xlink" width="137" height="88" viewBox="0 0 137 88">
  <defs>
    <clipPath id="clip-path">
      <rect id="Rectangle_3131" data-name="Rectangle 3131" width="137" height="88" fill="#fff"/>
    </clipPath>
    <clipPath id="clip-path-2">
      <rect id="Rectangle_3076" data-name="Rectangle 3076" width="137.147" height="91.617"/>
    </clipPath>
    <clipPath id="clip-rokj-golftour-logo">
      <rect width="137" height="88"/>
    </clipPath>
  </defs>
  <g id="rokj-golftour-logo" clip-path="url(#clip-rokj-golftour-logo)">
    <g id="Mask_Group_18" data-name="Mask Group 18" clip-path="url(#clip-path)">
      <g id="Group_476" data-name="Group 476" transform="translate(0 0.638)">
        <g id="Group_287" data-name="Group 287" transform="translate(0)">
          <g id="Group_286" data-name="Group 286">
            <g id="Group_285" data-name="Group 285" clip-path="url(#clip-path-2)">
              <path id="Path_5629" data-name="Path 5629" d="M514.013,164.273a1.064,1.064,0,0,0,.748,1.2,10.731,10.731,0,0,1,1.656,1.173,1.945,1.945,0,0,1-.894,1.554,1.386,1.386,0,0,0-.66.909c-.513,1.744-.88,1.979-2.7,1.862-.059,0-.1.029-.205.044-.044.22-.088.454-.147.689a4,4,0,0,1-2.228.176c-.557-.029-1.1-.044-1.656-.029-.674.015-1.334.1-2.008.073-.616-.029-.718-.235-.689-1,1.334-.528,2.932-.7,3.709-2.257a2.107,2.107,0,0,1-.235-1.994,10.037,10.037,0,0,0,.176-3.738,1.1,1.1,0,0,0-.279-.572,6.92,6.92,0,0,1-1.656-3.24c-.513-2.521-1.143-5.013-1.525-7.535a13.532,13.532,0,0,1,.454-6.787,5.83,5.83,0,0,1-.733-4.266,6.637,6.637,0,0,0,.1-.909c0-.469,0-.967-.542-1.217a.571.571,0,0,1-.264-.293,3.76,3.76,0,0,1-.044-3.005,1.638,1.638,0,0,1,1.5-1.041,5.528,5.528,0,0,0,2.243-.454c.073-.967.059-.982-.689-1.349a5.815,5.815,0,0,1-.63-.352c.1-.454.205-.88.308-1.319-.073-.132-.161-.264-.249-.425.132-.235.249-.469.41-.762-.5-.205-.938-.381-1.363-.542-.044-.909.161-1.2.894-1.261a3.455,3.455,0,0,1,.674,0,1.469,1.469,0,0,0,1.012-.235,2.426,2.426,0,0,1,3.489,1.686,2.811,2.811,0,0,1-.586,1.876,2.9,2.9,0,0,0-.5,2.213c.6.22.718.205,1.012-.176.132-.176.235-.381.366-.557.528-.836.894-.923,1.818-.41,1.73-.44,3.489-.894,5.248-1.334.836-.205,1.378.073,1.539.792a1.314,1.314,0,0,1-1.07,1.539.948.948,0,0,1-1.173-.792,8.71,8.71,0,0,1-.088-.982c-1.466.352-2.888.7-4.3,1.055-.073.557.22,1.143-.322,1.554a12.358,12.358,0,0,1,1.481,5.35,3.081,3.081,0,0,1-.674,2.4c-1.1-.352-1.422-1.5-2.243-2.228a2.713,2.713,0,0,0-.073.5c0,.923.044,1.847.015,2.77a4.858,4.858,0,0,1-.22,1.466,2.681,2.681,0,0,0-.073,1.554c.279,1.363.572,2.727.806,4.1a12.658,12.658,0,0,1-.308,5.644,21.979,21.979,0,0,0-.572,6.479,1.3,1.3,0,0,0,.235.689,15.985,15.985,0,0,0,1.055,1.407c.1.117.352.161.645.293m-1.437,3.181c-.205-.147-.41-.279-.63-.425a10.729,10.729,0,0,0-.352,1.481,9.764,9.764,0,0,0,.088,1.451c.748-.1.953-.264,1-1.011a10.546,10.546,0,0,0-.1-1.5m-5.028-22.633-.059.015.059.029Z" transform="translate(-430.209 -108.467)" fill="#599a43"/>
            </g>
          </g>
        </g>
        <g id="Group_290" data-name="Group 290" transform="translate(0)">
          <g id="Group_289" data-name="Group 289">
            <g id="Group_288" data-name="Group 288" clip-path="url(#clip-path-2)">
              <path id="Path_5630" data-name="Path 5630" d="M371.279,256.952a2.561,2.561,0,0,1,2.551-2.609,3.369,3.369,0,0,1,1.73.733,3.491,3.491,0,0,1,1.275,1.906,3.2,3.2,0,0,1-.176,2.125,2.4,2.4,0,0,1-2.7,1.334,3.5,3.5,0,0,1-2.683-3.489m1.246-1.613.015.059.015-.059Z" transform="translate(-316.851 -217.051)" fill="#185faa"/>
            </g>
          </g>
        </g>
        <g id="Group_293" data-name="Group 293" transform="translate(0)">
          <g id="Group_292" data-name="Group 292">
            <g id="Group_291" data-name="Group 291" clip-path="url(#clip-path-2)">
              <path id="Path_5631" data-name="Path 5631" d="M336.893,264.554a2.016,2.016,0,0,1-2.844,1.964,3.933,3.933,0,0,1-2.7-3.225,1.949,1.949,0,0,1,.836-2.126,2.061,2.061,0,0,1,2.287.029,4.152,4.152,0,0,1,2.228,2.463c.088.293.132.6.191.894" transform="translate(-282.743 -222.601)" fill="#185faa"/>
            </g>
          </g>
        </g>
        <g id="Group_296" data-name="Group 296" transform="translate(0)">
          <g id="Group_295" data-name="Group 295">
            <g id="Group_294" data-name="Group 294" clip-path="url(#clip-path-2)">
              <path id="Path_5632" data-name="Path 5632" d="M298.233,82.258c.4-.015.836-.235,1.129.293a5.657,5.657,0,0,1,2.815-4.222c.366-.249.836-.469,1.246-.132s.279.836.147,1.261a5.89,5.89,0,0,1-2.609,3.269,1.27,1.27,0,0,1-1.539.029,6.645,6.645,0,0,1-1.246,3.562,4.015,4.015,0,0,1-1.055,1.055c-.5.366-.924.147-1.012-.469a3.783,3.783,0,0,1,.044-.909c.015-.249.073-.5.1-.748l-.029.029c.117-.293.235-.586.367-.88l-.029.029L298.1,82.39l-.029.029c.059-.073.132-.132.191-.205Z" transform="translate(-252.689 -66.588)" fill="#185faa"/>
            </g>
          </g>
        </g>
        <g id="Group_299" data-name="Group 299" transform="translate(0)">
          <g id="Group_298" data-name="Group 298">
            <g id="Group_297" data-name="Group 297" clip-path="url(#clip-path-2)">
              <path id="Path_5633" data-name="Path 5633" d="M369.879,300.771a1.886,1.886,0,0,1-1.95,2.038,3.658,3.658,0,0,1-3.43-3.459,1.878,1.878,0,0,1,1.95-1.95,3.643,3.643,0,0,1,3.43,3.371" transform="translate(-311.068 -253.805)" fill="#185faa"/>
            </g>
          </g>
        </g>
        <g id="Group_302" data-name="Group 302" transform="translate(0)">
          <g id="Group_301" data-name="Group 301">
            <g id="Group_300" data-name="Group 300" clip-path="url(#clip-path-2)">
              <path id="Path_5634" data-name="Path 5634" d="M354.543,222.351a2.941,2.941,0,0,1-1.1,2.228,2.236,2.236,0,0,1-3.284-1.173c-.132-.4-.249-.792-.352-1.2a2.572,2.572,0,0,1,1.1-2.536,2.116,2.116,0,0,1,2.492.249,3.338,3.338,0,0,1,1.143,2.433m-.616.293.044-.015-.029.029-.029.029Z" transform="translate(-298.488 -187.214)" fill="#185faa"/>
            </g>
          </g>
        </g>
        <g id="Group_305" data-name="Group 305" transform="translate(0)">
          <g id="Group_304" data-name="Group 304">
            <g id="Group_303" data-name="Group 303" clip-path="url(#clip-path-2)">
              <path id="Path_5635" data-name="Path 5635" d="M318.224,222.522a2.89,2.89,0,0,1-1.6-1.07,4.8,4.8,0,0,1-.66-2.727,3.706,3.706,0,0,1,.513-1.744,1.468,1.468,0,0,1,2.507-.308,3.767,3.767,0,0,1,1,3.313c-.059.352-.161.7-.249,1.055-.235.938-.5,1.2-1.51,1.481" transform="translate(-269.645 -184.424)" fill="#185faa"/>
            </g>
          </g>
        </g>
        <g id="Group_308" data-name="Group 308" transform="translate(0)">
          <g id="Group_307" data-name="Group 307">
            <g id="Group_306" data-name="Group 306" clip-path="url(#clip-path-2)">
              <path id="Path_5636" data-name="Path 5636" d="M327.9,143.823a4.524,4.524,0,0,1,.924-2.873,4.676,4.676,0,0,1,1.055-.777,1.379,1.379,0,0,1,1.774.469,3.178,3.178,0,0,1,.513,1.217,3.838,3.838,0,0,1-1.334,3.738,1.545,1.545,0,0,1-2.551-.572,6.043,6.043,0,0,1-.381-1.2" transform="translate(-279.834 -119.489)" fill="#185faa"/>
            </g>
          </g>
        </g>
        <g id="Group_311" data-name="Group 311" transform="translate(0)">
          <g id="Group_310" data-name="Group 310">
            <g id="Group_309" data-name="Group 309" clip-path="url(#clip-path-2)">
              <path id="Path_5637" data-name="Path 5637" d="M384.144,345.928a4.032,4.032,0,0,1-3.5-2.316,1.481,1.481,0,0,1,1.393-2.214,3.819,3.819,0,0,1,3.547,2.1,1.513,1.513,0,0,1-1.437,2.433" transform="translate(-324.703 -291.354)" fill="#185faa"/>
            </g>
          </g>
        </g>
        <g id="Group_314" data-name="Group 314" transform="translate(0)">
          <g id="Group_313" data-name="Group 313">
            <g id="Group_312" data-name="Group 312" clip-path="url(#clip-path-2)">
              <path id="Path_5638" data-name="Path 5638" d="M307.67,176.862a5.278,5.278,0,0,1-1.085,2.888,1.342,1.342,0,0,1-2.477-.352,4.574,4.574,0,0,1,.967-4.515,1.226,1.226,0,0,1,2.155.381,8.6,8.6,0,0,1,.44,1.6" transform="translate(-259.326 -148.834)" fill="#185faa"/>
            </g>
          </g>
        </g>
        <g id="Group_317" data-name="Group 317" transform="translate(0)">
          <g id="Group_316" data-name="Group 316">
            <g id="Group_315" data-name="Group 315" clip-path="url(#clip-path-2)">
              <path id="Path_5639" data-name="Path 5639" d="M339.53,187.5a2.74,2.74,0,0,1-.484,1.554,1.793,1.793,0,0,1-2.375.528,2.962,2.962,0,0,1-1.187-3.709,1.823,1.823,0,0,1,2.976-.66,3.059,3.059,0,0,1,1.07,2.287" transform="translate(-286.099 -157.624)" fill="#185faa"/>
            </g>
          </g>
        </g>
        <g id="Group_320" data-name="Group 320" transform="translate(0)">
          <g id="Group_319" data-name="Group 319">
            <g id="Group_318" data-name="Group 318" clip-path="url(#clip-path-2)">
              <path id="Path_5640" data-name="Path 5640" d="M368.1,74.879c1.026,0,1.554.63,1.334,1.583a3.623,3.623,0,0,1-.454,1.07,4.736,4.736,0,0,1-2.375,1.891,3.051,3.051,0,0,1-.806.176c-1.246.1-1.862-.66-1.422-1.832a4.47,4.47,0,0,1,3.518-2.873.53.53,0,0,1,.205-.015" transform="translate(-310.842 -63.899)" fill="#185faa"/>
            </g>
          </g>
        </g>
        <g id="Group_323" data-name="Group 323" transform="translate(0)">
          <g id="Group_322" data-name="Group 322">
            <g id="Group_321" data-name="Group 321" clip-path="url(#clip-path-2)">
              <path id="Path_5641" data-name="Path 5641" d="M327.8,105.9a4.139,4.139,0,0,1,2.14-3.386,1.357,1.357,0,0,1,2.126,1.055,3.486,3.486,0,0,1-1,3.064,3.594,3.594,0,0,1-1.2.88,1.327,1.327,0,0,1-1.95-.938c-.059-.22-.073-.44-.117-.674" transform="translate(-279.749 -87.294)" fill="#185faa"/>
            </g>
          </g>
        </g>
        <g id="Group_326" data-name="Group 326" transform="translate(0)">
          <g id="Group_325" data-name="Group 325">
            <g id="Group_324" data-name="Group 324" clip-path="url(#clip-path-2)">
              <path id="Path_5642" data-name="Path 5642" d="M331.49,301.32c-.015.176-.015.322-.029.454a1.137,1.137,0,0,1-1.363,1.011,3.108,3.108,0,0,1-1.554-.762,4.521,4.521,0,0,1-1.51-2.448,2.628,2.628,0,0,1-.015-1.07,1.135,1.135,0,0,1,1.231-.909,1.957,1.957,0,0,1,.5.073,4.327,4.327,0,0,1,2.741,3.65" transform="translate(-279.041 -253.973)" fill="#185faa"/>
            </g>
          </g>
        </g>
        <g id="Group_329" data-name="Group 329" transform="translate(0)">
          <g id="Group_328" data-name="Group 328">
            <g id="Group_327" data-name="Group 327" clip-path="url(#clip-path-2)">
              <path id="Path_5643" data-name="Path 5643" d="M304,256.332a3.274,3.274,0,0,1,.1-.586c.337-1.319,1.349-1.613,2.375-.7a3.962,3.962,0,0,1,.894,1.583,3.191,3.191,0,0,1,.323,2.257,3.5,3.5,0,0,1-.323.762.988.988,0,0,1-1.3.41,2.8,2.8,0,0,1-.938-.66A4.494,4.494,0,0,1,304,256.332" transform="translate(-259.438 -217.208)" fill="#185faa"/>
            </g>
          </g>
        </g>
        <g id="Group_332" data-name="Group 332" transform="translate(0)">
          <g id="Group_331" data-name="Group 331">
            <g id="Group_330" data-name="Group 330" clip-path="url(#clip-path-2)">
              <path id="Path_5644" data-name="Path 5644" d="M417.181,375.322a4.659,4.659,0,0,1-3.122-1.363c-.879-.953-.586-1.95.689-2.214a4.307,4.307,0,0,1,4.046,1.29c.879.865.528,1.906-.66,2.2-.322.059-.63.059-.953.088" transform="translate(-352.932 -317.171)" fill="#185faa"/>
            </g>
          </g>
        </g>
        <g id="Group_335" data-name="Group 335" transform="translate(0)">
          <g id="Group_334" data-name="Group 334">
            <g id="Group_333" data-name="Group 333" clip-path="url(#clip-path-2)">
              <path id="Path_5645" data-name="Path 5645" d="M411.206,7.98c-.308-.117-.528-.205-.806-.322.235-.645.806-.792,1.3-.953a6.049,6.049,0,0,1,3.738-.425c-.293.689-.674.894-2.595,1.437.117.073.205.132.293.176.718.322.821.63.293,1.158a5.1,5.1,0,0,1-1.217.865,5.822,5.822,0,0,1-2.8.733,2.636,2.636,0,0,1-.586-.044c-.6-.147-.792-.586-.366-1.041a5.622,5.622,0,0,1,1.246-.953,15.918,15.918,0,0,1,1.5-.63" transform="translate(-348.393 -5.224)" fill="#f7a81b"/>
            </g>
          </g>
        </g>
        <g id="Group_338" data-name="Group 338" transform="translate(0)">
          <g id="Group_337" data-name="Group 337">
            <g id="Group_336" data-name="Group 336" clip-path="url(#clip-path-2)">
              <path id="Path_5646" data-name="Path 5646" d="M307.331,132.8a5.192,5.192,0,0,1-1.51,3.269,2.761,2.761,0,0,1-.454.366c-.821.528-1.6.264-1.759-.7a4.589,4.589,0,0,1,.073-1.73,4.835,4.835,0,0,1,1.275-2.316c.454-.469.982-.924,1.686-.63.66.279.689.938.689,1.744" transform="translate(-259.059 -111.769)" fill="#185faa"/>
            </g>
          </g>
        </g>
        <g id="Group_341" data-name="Group 341" transform="translate(0)">
          <g id="Group_340" data-name="Group 340">
            <g id="Group_339" data-name="Group 339" clip-path="url(#clip-path-2)">
              <path id="Path_5647" data-name="Path 5647" d="M437.3,29.1a8.052,8.052,0,0,1,1.349.381,1.01,1.01,0,0,1,.4,1.656,2.37,2.37,0,0,1-.469.469,4.8,4.8,0,0,1-3.87.85,2.142,2.142,0,0,1-.762-.308.923.923,0,0,1-.337-1.422,3.3,3.3,0,0,1,.821-.806A5.549,5.549,0,0,1,437.3,29.1" transform="translate(-369.87 -24.834)" fill="#f7a81b"/>
            </g>
          </g>
        </g>
        <g id="Group_344" data-name="Group 344" transform="translate(0)">
          <g id="Group_343" data-name="Group 343">
            <g id="Group_342" data-name="Group 342" clip-path="url(#clip-path-2)">
              <path id="Path_5648" data-name="Path 5648" d="M291.228,219.6a16.452,16.452,0,0,1-.015-2.082,3.521,3.521,0,0,1,.454-1.422,1.117,1.117,0,0,1,2.1-.015,5.785,5.785,0,0,1,.542,1.656,4.326,4.326,0,0,1-.279,2.389,2.011,2.011,0,0,1-.293.513c-.586.777-1.246.821-1.862.073a7.919,7.919,0,0,1-.674-1.129Z" transform="translate(-248.498 -183.793)" fill="#185faa"/>
            </g>
          </g>
        </g>
        <g id="Group_347" data-name="Group 347" transform="translate(0)">
          <g id="Group_346" data-name="Group 346">
            <g id="Group_345" data-name="Group 345" clip-path="url(#clip-path-2)">
              <path id="Path_5649" data-name="Path 5649" d="M344.819,343.84a12.461,12.461,0,0,1-.425-1.246c-.22-.894.264-1.407,1.173-1.29a2.548,2.548,0,0,1,.322.073,5.224,5.224,0,0,1,3.078,2.873,1.212,1.212,0,0,1-.088,1.481c-.41.4-.923.264-1.422.1a4.972,4.972,0,0,1-1.979-1.349c-.22-.235-.469-.454-.7-.689Z" transform="translate(-293.865 -291.259)" fill="#185faa"/>
            </g>
          </g>
        </g>
        <g id="Group_350" data-name="Group 350" transform="translate(0)">
          <g id="Group_349" data-name="Group 349">
            <g id="Group_348" data-name="Group 348" clip-path="url(#clip-path-2)">
              <path id="Path_5650" data-name="Path 5650" d="M397.514,47.26a6.046,6.046,0,0,1-1.173-.352.867.867,0,0,1-.425-1.143,1.79,1.79,0,0,1,.352-.66,4.091,4.091,0,0,1,3.723-1.5,1.11,1.11,0,0,1,.88,1.862,4.677,4.677,0,0,1-3.357,1.788" transform="translate(-337.824 -37.19)" fill="#185faa"/>
            </g>
          </g>
        </g>
        <g id="Group_353" data-name="Group 353" transform="translate(0)">
          <g id="Group_352" data-name="Group 352">
            <g id="Group_351" data-name="Group 351" clip-path="url(#clip-path-2)">
              <path id="Path_5651" data-name="Path 5651" d="M355.874,50.761a14.191,14.191,0,0,1,1.48-1.187,4.516,4.516,0,0,1,1.627-.586c.689-.117,1.055.308.938,1a2.519,2.519,0,0,1-.352.924,5.468,5.468,0,0,1-2.668,2.169,2.4,2.4,0,0,1-.557.147c-.88.132-1.334-.352-1.1-1.231.088-.322.22-.616.337-.923l-.029.029a2.427,2.427,0,0,1,.205-.191l-.029.029.205-.205Z" transform="translate(-303.117 -41.79)" fill="#185faa"/>
            </g>
          </g>
        </g>
        <g id="Group_356" data-name="Group 356" transform="translate(0)">
          <g id="Group_355" data-name="Group 355">
            <g id="Group_354" data-name="Group 354" clip-path="url(#clip-path-2)">
              <path id="Path_5652" data-name="Path 5652" d="M284.879,174.726a3.193,3.193,0,0,1-.718-2.389,5.738,5.738,0,0,1,.542-2.257,2.84,2.84,0,0,1,.6-.88.764.764,0,0,1,1.349.235,3.4,3.4,0,0,1,.323,1.2,5.72,5.72,0,0,1-.674,3.137,1.518,1.518,0,0,1-1.451.938Z" transform="translate(-242.5 -144.133)" fill="#185faa"/>
            </g>
          </g>
        </g>
        <g id="Group_359" data-name="Group 359" transform="translate(0)">
          <g id="Group_358" data-name="Group 358">
            <g id="Group_357" data-name="Group 357" clip-path="url(#clip-path-2)">
              <path id="Path_5653" data-name="Path 5653" d="M379.551,375.023a5.61,5.61,0,0,1-3.841-2.082,1.375,1.375,0,0,1-.22-.44c-.22-.6-.029-.953.616-1.1a1.67,1.67,0,0,1,.66-.029,5.87,5.87,0,0,1,3.342,1.73,2.366,2.366,0,0,1,.425.6c.4.733.088,1.261-.733,1.319a1.41,1.41,0,0,1-.249,0" transform="translate(-320.374 -316.916)" fill="#185faa"/>
            </g>
          </g>
        </g>
        <g id="Group_362" data-name="Group 362" transform="translate(0)">
          <g id="Group_361" data-name="Group 361">
            <g id="Group_360" data-name="Group 360" clip-path="url(#clip-path-2)">
              <path id="Path_5654" data-name="Path 5654" d="M277.1,237.743a7.97,7.97,0,0,1-.674-3.4,4.379,4.379,0,0,1,.132-.894c.191-.66.308-.733,1.07-.733l-.029-.015c.337.572.674,1.143,1.026,1.715l-.029-.029c.073.572.176,1.143.22,1.715a6.3,6.3,0,0,1-.059,1.393c-.147.938-.469,1.1-1.334.733l.029.029-.191-.191.015.029c-.059-.117-.117-.249-.191-.366Z" transform="translate(-235.889 -198.589)" fill="#185faa"/>
            </g>
          </g>
        </g>
        <g id="Group_365" data-name="Group 365" transform="translate(0)">
          <g id="Group_364" data-name="Group 364">
            <g id="Group_363" data-name="Group 363" clip-path="url(#clip-path-2)">
              <path id="Path_5655" data-name="Path 5655" d="M292.344,275.839a5.606,5.606,0,0,1-.1.718c-.147.5-.528.616-.968.323a1.822,1.822,0,0,1-.425-.4,6.569,6.569,0,0,1-1.349-3.8,1.954,1.954,0,0,1,.044-.41c.059-.337.1-.7.5-.792a.849.849,0,0,1,.865.41,6.481,6.481,0,0,1,1.437,3.943" transform="translate(-247.063 -231.673)" fill="#185faa"/>
            </g>
          </g>
        </g>
        <g id="Group_368" data-name="Group 368" transform="translate(0)">
          <g id="Group_367" data-name="Group 367">
            <g id="Group_366" data-name="Group 366" clip-path="url(#clip-path-2)">
              <path id="Path_5656" data-name="Path 5656" d="M450.5,12.026a1.073,1.073,0,0,1,.718-.85,6.232,6.232,0,0,1,4.09-.4.628.628,0,0,1,.235.073c.279.132.586.249.616.616s-.22.557-.484.718a5.63,5.63,0,0,1-3.225.689,6.04,6.04,0,0,1-1.231-.22.947.947,0,0,1-.718-.63" transform="translate(-384.462 -9.05)" fill="#f7a81b"/>
            </g>
          </g>
        </g>
        <g id="Group_371" data-name="Group 371" transform="translate(0)">
          <g id="Group_370" data-name="Group 370">
            <g id="Group_369" data-name="Group 369" clip-path="url(#clip-path-2)">
              <path id="Path_5657" data-name="Path 5657" d="M314.254,319.814a.829.829,0,0,1-1.114.015,5.371,5.371,0,0,1-2.492-3.21,3.353,3.353,0,0,1-.015-.938c.674-.425,1.143-.059,1.568.264a6.23,6.23,0,0,1,1.876,2.3,2.236,2.236,0,0,1,.176,1.568" transform="translate(-265.074 -269.241)" fill="#185faa"/>
            </g>
          </g>
        </g>
        <g id="Group_374" data-name="Group 374" transform="translate(0)">
          <g id="Group_373" data-name="Group 373">
            <g id="Group_372" data-name="Group 372" clip-path="url(#clip-path-2)">
              <path id="Path_5658" data-name="Path 5658" d="M352.125,374.175a.769.769,0,0,1-.953.249,7.2,7.2,0,0,1-3.738-2.8,2.579,2.579,0,0,1-.235-.718.988.988,0,0,1,1.173-.117,7.358,7.358,0,0,1,3.4,2.595,3.443,3.443,0,0,1,.352.792" transform="translate(-296.305 -316.317)" fill="#185faa"/>
            </g>
          </g>
        </g>
        <g id="Group_377" data-name="Group 377" transform="translate(0)">
          <g id="Group_376" data-name="Group 376">
            <g id="Group_375" data-name="Group 375" clip-path="url(#clip-path-2)">
              <path id="Path_5659" data-name="Path 5659" d="M337.532,50.655c-.425.308-.836.616-1.261.909a8.348,8.348,0,0,1-1.217.689,3.8,3.8,0,0,1-.923.132c-.205-.469.029-.733.176-1.011.117-.235.249-.469.381-.718l-.029.029.367-.366-.029.029a2.42,2.42,0,0,1,.205-.191l-.029.029.191-.191-.015.029c.205-.132.41-.264.616-.381a18.533,18.533,0,0,1,1.642-.967,3.718,3.718,0,0,1,.894-.176c.249.454.029.733-.132,1.026s-.337.557-.513.836l.029-.029-.205.205.029-.029c-.073.059-.132.132-.205.191Z" transform="translate(-285.083 -41.391)" fill="#185faa"/>
            </g>
          </g>
        </g>
        <g id="Group_380" data-name="Group 380" transform="translate(0)">
          <g id="Group_379" data-name="Group 379">
            <g id="Group_378" data-name="Group 378" clip-path="url(#clip-path-2)">
              <path id="Path_5660" data-name="Path 5660" d="M373.235,27.4c-.249.117-.5.235-.748.337-.674.264-1.334.542-2.038.748a2.909,2.909,0,0,1-.865-.044,1.174,1.174,0,0,1,.44-.967,7.953,7.953,0,0,1,3.606-2.023.913.913,0,0,1,1.041.191,1.8,1.8,0,0,1-.689,1.07l-.777.733Z" transform="translate(-315.407 -21.653)" fill="#f7a81b"/>
            </g>
          </g>
        </g>
        <g id="Group_383" data-name="Group 383" transform="translate(0)">
          <g id="Group_382" data-name="Group 382">
            <g id="Group_381" data-name="Group 381" clip-path="url(#clip-path-2)">
              <path id="Path_5661" data-name="Path 5661" d="M404.153,71.883a1.223,1.223,0,0,1-1.2-.586,1.14,1.14,0,0,1,.22-1.319,2.287,2.287,0,0,1,2.111-.953,1.08,1.08,0,0,1,.88,1.7,2.384,2.384,0,0,1-2.008,1.158" transform="translate(-343.773 -58.896)" fill="#185faa"/>
            </g>
          </g>
        </g>
        <g id="Group_386" data-name="Group 386" transform="translate(0)">
          <g id="Group_385" data-name="Group 385">
            <g id="Group_384" data-name="Group 384" clip-path="url(#clip-path-2)">
              <path id="Path_5662" data-name="Path 5662" d="M388.18,400.18c-1.466.484-4.676-.909-5.38-2.36.161-.073.322-.22.469-.22a5.788,5.788,0,0,1,1.231.161,8.124,8.124,0,0,1,3.2,1.554c.249.205.542.4.484.865" transform="translate(-326.686 -339.317)" fill="#185faa"/>
            </g>
          </g>
        </g>
        <g id="Group_389" data-name="Group 389" transform="translate(0)">
          <g id="Group_388" data-name="Group 388">
            <g id="Group_387" data-name="Group 387" clip-path="url(#clip-path-2)">
              <path id="Path_5663" data-name="Path 5663" d="M421.908,402.551a6.106,6.106,0,0,1-2.4-.542,1.368,1.368,0,0,1-.484-.308c-.161-.205-.4-.484-.352-.674a.878.878,0,0,1,.586-.469,4.672,4.672,0,0,1,3.65.762.841.841,0,0,1,.352.674c-.044.191-.366.381-.6.469a5.905,5.905,0,0,1-.748.088" transform="translate(-357.293 -341.761)" fill="#185faa"/>
            </g>
          </g>
        </g>
        <g id="Group_392" data-name="Group 392" transform="translate(0)">
          <g id="Group_391" data-name="Group 391">
            <g id="Group_390" data-name="Group 390" clip-path="url(#clip-path-2)">
              <path id="Path_5664" data-name="Path 5664" d="M279.461,142.073c.132-.015.279-.044.454-.073.5.865.029,1.73.059,2.595l.015-.029c-.147.381-.264.777-.425,1.143-.22.513-.454,1.011-.718,1.5-.088.176-.278.293-.484.484a1.689,1.689,0,0,1-.293-1.334,10.122,10.122,0,0,1,1.407-4.295Z" transform="translate(-237.288 -121.185)" fill="#185faa"/>
            </g>
          </g>
        </g>
        <g id="Group_395" data-name="Group 395" transform="translate(0)">
          <g id="Group_394" data-name="Group 394">
            <g id="Group_393" data-name="Group 393" clip-path="url(#clip-path-2)">
              <path id="Path_5665" data-name="Path 5665" d="M477.8,411.3a3.244,3.244,0,0,1,.733-.5,5.194,5.194,0,0,1,3.269-.088,1.667,1.667,0,0,1,.513.249.46.46,0,0,1,.029.777,1.671,1.671,0,0,1-.5.279,5.41,5.41,0,0,1-3.269.044,1,1,0,0,1-.777-.762" transform="translate(-407.761 -350.315)" fill="#185faa"/>
            </g>
          </g>
        </g>
        <g id="Group_398" data-name="Group 398" transform="translate(0)">
          <g id="Group_397" data-name="Group 397">
            <g id="Group_396" data-name="Group 396" clip-path="url(#clip-path-2)">
              <path id="Path_5666" data-name="Path 5666" d="M517.919,3.2c-1.275.806-4.3.205-5.219-.938.059-.4.4-.44.689-.469a6.551,6.551,0,0,1,4.148.938,1.877,1.877,0,0,1,.381.469" transform="translate(-437.545 -1.501)" fill="#f7a81b"/>
            </g>
          </g>
        </g>
        <g id="Group_401" data-name="Group 401" transform="translate(0)">
          <g id="Group_400" data-name="Group 400">
            <g id="Group_399" data-name="Group 399" clip-path="url(#clip-path-2)">
              <path id="Path_5667" data-name="Path 5667" d="M359.5,330.855a2.62,2.62,0,0,1-2.14-1.51c-.308-.806.176-1.451,1.011-1.29a2.6,2.6,0,0,1,1.979,1.5c.366.777,0,1.334-.85,1.3" transform="translate(-304.893 -279.945)" fill="#185faa"/>
            </g>
          </g>
        </g>
        <g id="Group_404" data-name="Group 404" transform="translate(0)">
          <g id="Group_403" data-name="Group 403">
            <g id="Group_402" data-name="Group 402" clip-path="url(#clip-path-2)">
              <path id="Path_5668" data-name="Path 5668" d="M272.95,188.8c.792.924.6,5.087-.293,6.274-.322-.044-.366-.322-.4-.557a11.578,11.578,0,0,1,.322-5.2,1.546,1.546,0,0,1,.22-.44c.029-.044.1-.044.147-.073" transform="translate(-232.213 -161.124)" fill="#185faa"/>
            </g>
          </g>
        </g>
        <g id="Group_407" data-name="Group 407" transform="translate(0)">
          <g id="Group_406" data-name="Group 406">
            <g id="Group_405" data-name="Group 405" clip-path="url(#clip-path-2)">
              <path id="Path_5669" data-name="Path 5669" d="M499.356,11.064a.837.837,0,0,1-.792.66,5.1,5.1,0,0,1-3.02-.381,2.142,2.142,0,0,1-.484-.322c-.322-.322-.279-.674.132-.865a1.765,1.765,0,0,1,.4-.117,4.62,4.62,0,0,1,3.152.484,2,2,0,0,1,.616.542" transform="translate(-422.31 -8.484)" fill="#f7a81b"/>
            </g>
          </g>
        </g>
        <g id="Group_410" data-name="Group 410" transform="translate(0)">
          <g id="Group_409" data-name="Group 409">
            <g id="Group_408" data-name="Group 408" clip-path="url(#clip-path-2)">
              <path id="Path_5670" data-name="Path 5670" d="M471.417.69c-.982.923-4.5.88-5.717-.044.1-.117.19-.293.322-.322a8.767,8.767,0,0,1,5.1.117c.088.029.161.147.293.249" transform="translate(-397.434 -0.001)" fill="#f7a81b"/>
            </g>
          </g>
        </g>
        <g id="Group_413" data-name="Group 413" transform="translate(0)">
          <g id="Group_412" data-name="Group 412">
            <g id="Group_411" data-name="Group 411" clip-path="url(#clip-path-2)">
              <path id="Path_5671" data-name="Path 5671" d="M293.472,305.3c1.29.557,3.034,3.8,2.756,5.1-.366.059-.557-.22-.7-.454-.484-.777-.953-1.568-1.407-2.36a12.727,12.727,0,0,1-.586-1.187,1.093,1.093,0,0,1-.059-1.1" transform="translate(-250.346 -260.547)" fill="#185faa"/>
            </g>
          </g>
        </g>
        <g id="Group_416" data-name="Group 416" transform="translate(0)">
          <g id="Group_415" data-name="Group 415">
            <g id="Group_414" data-name="Group 414" clip-path="url(#clip-path-2)">
              <path id="Path_5672" data-name="Path 5672" d="M305.675,79.908c-.235.088-.454.176-.689.264-.088-1.158,2.257-4.4,3.635-5.072.191.425-.059.762-.235,1.085a15.848,15.848,0,0,1-2.3,3.181,3.712,3.712,0,0,0-.264.4l.029-.029-.191.205Z" transform="translate(-260.277 -64.091)" fill="#185faa"/>
            </g>
          </g>
        </g>
        <g id="Group_419" data-name="Group 419" transform="translate(0)">
          <g id="Group_418" data-name="Group 418">
            <g id="Group_417" data-name="Group 417" clip-path="url(#clip-path-2)">
              <path id="Path_5673" data-name="Path 5673" d="M318.435,344.495c.132.279.279.542.4.821.073.22.1.454.191.836a4.445,4.445,0,0,1-2.448-1.994c-.484-.63-1.231-1.158-1.129-2.257a4.15,4.15,0,0,1,.88.41c.484.41.923.88,1.393,1.319.191.191.4.352.586.542l-.029-.029c.059.132.132.249.191.381Z" transform="translate(-269.196 -291.782)" fill="#185faa"/>
            </g>
          </g>
        </g>
        <g id="Group_422" data-name="Group 422" transform="translate(0)">
          <g id="Group_421" data-name="Group 421">
            <g id="Group_420" data-name="Group 420" clip-path="url(#clip-path-2)">
              <path id="Path_5674" data-name="Path 5674" d="M311.251,293.3a2.072,2.072,0,0,1,.6.191,3.221,3.221,0,0,1,1.3,2.756c-.015.454-.293.586-.689.41a3.283,3.283,0,0,1-1.451-2.917c.029-.1.132-.22.235-.44" transform="translate(-265.399 -250.306)" fill="#185faa"/>
            </g>
          </g>
        </g>
        <g id="Group_425" data-name="Group 425" transform="translate(0)">
          <g id="Group_424" data-name="Group 424">
            <g id="Group_423" data-name="Group 423" clip-path="url(#clip-path-2)">
              <path id="Path_5675" data-name="Path 5675" d="M429.724,417.175a3.988,3.988,0,0,1-4.324-.85,1.254,1.254,0,0,1,1.29-.337,4.877,4.877,0,0,1,3.034,1.187" transform="translate(-363.042 -354.978)" fill="#185faa"/>
            </g>
          </g>
        </g>
        <g id="Group_428" data-name="Group 428" transform="translate(0)">
          <g id="Group_427" data-name="Group 427">
            <g id="Group_426" data-name="Group 426" clip-path="url(#clip-path-2)">
              <path id="Path_5676" data-name="Path 5676" d="M349.873,83.209a1.076,1.076,0,0,1-.176,1.2,2.256,2.256,0,0,1-1.612,1.07.49.49,0,0,1-.6-.586,2.148,2.148,0,0,1,2.389-1.686" transform="translate(-296.545 -70.984)" fill="#185faa"/>
            </g>
          </g>
        </g>
        <g id="Group_431" data-name="Group 431" transform="translate(0)">
          <g id="Group_430" data-name="Group 430">
            <g id="Group_429" data-name="Group 429" clip-path="url(#clip-path-2)">
              <path id="Path_5677" data-name="Path 5677" d="M388.464,37.07c.264-.088.513-.191.777-.279a1.338,1.338,0,0,1,1.2.044c.161.586-.22.88-.586,1.173a2.245,2.245,0,0,1-2.287.572c-.22-.366,0-.63.22-.88s.469-.454.7-.674Z" transform="translate(-330.679 -31.294)" fill="#f7a81b"/>
            </g>
          </g>
        </g>
        <g id="Group_434" data-name="Group 434" transform="translate(0)">
          <g id="Group_433" data-name="Group 433">
            <g id="Group_432" data-name="Group 432" clip-path="url(#clip-path-2)">
              <path id="Path_5678" data-name="Path 5678" d="M467.054,424.03a4.194,4.194,0,0,1-4.354.132c.176-.5.66-.5,1.026-.528a5.105,5.105,0,0,1,3.327.4" transform="translate(-394.874 -361.452)" fill="#185faa"/>
            </g>
          </g>
        </g>
        <g id="Group_437" data-name="Group 437" transform="translate(0)">
          <g id="Group_436" data-name="Group 436">
            <g id="Group_435" data-name="Group 435" clip-path="url(#clip-path-2)">
              <path id="Path_5679" data-name="Path 5679" d="M282.584,208.5a4.09,4.09,0,0,1,.147,2.609c-.132.41-.205.909-.806.923l.029.015a3.24,3.24,0,0,1-.073-3.24.786.786,0,0,1,.718-.308Z" transform="translate(-240.22 -177.937)" fill="#185faa"/>
            </g>
          </g>
        </g>
        <g id="Group_440" data-name="Group 440" transform="translate(0)">
          <g id="Group_439" data-name="Group 439">
            <g id="Group_438" data-name="Group 438" clip-path="url(#clip-path-2)">
              <path id="Path_5680" data-name="Path 5680" d="M291.2,146.9c.117-.4.235-.792.366-1.173a1.785,1.785,0,0,1,.865-1.026c.7.6.425,1.334.249,1.979-.161.557-.337,1.173-1.2,1.246-.088-.381-.176-.718-.249-1.055Z" transform="translate(-248.514 -123.489)" fill="#185faa"/>
            </g>
          </g>
        </g>
        <g id="Group_443" data-name="Group 443" transform="translate(0)">
          <g id="Group_442" data-name="Group 442">
            <g id="Group_441" data-name="Group 441" clip-path="url(#clip-path-2)">
              <path id="Path_5681" data-name="Path 5681" d="M454.686,414.013a2.481,2.481,0,0,1-3.386-.425c.337-.616.953-.454,1.466-.425a2.024,2.024,0,0,1,1.92.85" transform="translate(-385.145 -352.564)" fill="#185faa"/>
            </g>
          </g>
        </g>
        <g id="Group_446" data-name="Group 446" transform="translate(0)">
          <g id="Group_445" data-name="Group 445">
            <g id="Group_444" data-name="Group 444" clip-path="url(#clip-path-2)">
              <path id="Path_5682" data-name="Path 5682" d="M387.3,12.967a14.446,14.446,0,0,1,4.749-2.067,2.283,2.283,0,0,1-1.085,1,6.37,6.37,0,0,1-3.665,1.07" transform="translate(-330.527 -9.302)" fill="#f7a81b"/>
            </g>
          </g>
        </g>
        <g id="Group_449" data-name="Group 449" transform="translate(0)">
          <g id="Group_448" data-name="Group 448">
            <g id="Group_447" data-name="Group 447" clip-path="url(#clip-path-2)">
              <path id="Path_5683" data-name="Path 5683" d="M279.63,266.545a6.8,6.8,0,0,0,.235.777,11.58,11.58,0,0,1,.836,3.122c.015.191,0,.366,0,.63A13.817,13.817,0,0,1,279,265.9c.1.059.205.1.293.147l-.015-.029c.059.117.117.249.191.367l-.015-.029.191.191Z" transform="translate(-238.102 -226.922)" fill="#185faa"/>
            </g>
          </g>
        </g>
        <g id="Group_451" data-name="Group 451" transform="translate(48.975 51.551)">
          <g id="Group_450" data-name="Group 450" transform="translate(0)">
            <path id="Path_5684" data-name="Path 5684" d="M334.217,352.514c-.044-.234-.073-.469-.117-.674.4-.322.689-.1.953.073.352.235.689.528,1.026.792l-.029-.029c.117.337.22.66.323.967-.117.308-.323.381-.557.264a5.058,5.058,0,0,1-.762-.469c-.235-.176-.454-.381-.689-.586l.029.029c-.059-.132-.132-.249-.191-.381Z" transform="translate(-334.1 -351.675)" fill="#185faa"/>
          </g>
        </g>
        <g id="Group_453" data-name="Group 453" transform="translate(51.349 4.368)">
          <g id="Group_452" data-name="Group 452" transform="translate(0)">
            <path id="Path_5685" data-name="Path 5685" d="M354.4,29.8a7.62,7.62,0,0,1-4.1,3.02,14.051,14.051,0,0,1,4.1-3.02" transform="translate(-350.3 -29.8)" fill="#185faa"/>
          </g>
        </g>
        <g id="Group_455" data-name="Group 455" transform="translate(42.08 16.183)">
          <g id="Group_454" data-name="Group 454" transform="translate(0)">
            <path id="Path_5686" data-name="Path 5686" d="M287.187,115.091c-.044-.117-.147-.264-.117-.366a14,14,0,0,1,2.082-4.324c.191.674-.308,1.129-.279,1.656l.029-.029c-.117.293-.235.586-.366.88l.029-.029a4.078,4.078,0,0,0-.381.5c-.337.572-.674,1.158-1.011,1.73Z" transform="translate(-287.065 -110.4)" fill="#185faa"/>
          </g>
        </g>
        <g id="Group_457" data-name="Group 457" transform="translate(47.846 8.268)">
          <g id="Group_456" data-name="Group 456" transform="translate(0)">
            <path id="Path_5687" data-name="Path 5687" d="M328.789,56.4v.366l.015-.029-.191.191.029-.029a2.429,2.429,0,0,1-.205.191l.029-.029-.366.366.029-.029-1.73,1.6a11.123,11.123,0,0,1,2.389-2.58Z" transform="translate(-326.4 -56.4)" fill="#185faa"/>
          </g>
        </g>
        <g id="Group_459" data-name="Group 459" transform="translate(50.25 8.106)">
          <g id="Group_458" data-name="Group 458" transform="translate(0)">
            <path id="Path_5688" data-name="Path 5688" d="M342.8,55.476c.059-.059.117-.1.176-.161l-.015-.015a1.681,1.681,0,0,0-.161.161Z" transform="translate(-342.8 -55.3)" fill="#185faa"/>
          </g>
        </g>
        <path id="Path_5689" data-name="Path 5689" d="M343.829,55.059a.273.273,0,0,1,.044-.059c-.015,0-.044.029-.073.044Z" transform="translate(-293.403 -46.938)" fill="#185faa"/>
        <g id="Group_461" data-name="Group 461" transform="translate(1.129 72.077)">
          <g id="Group_460" data-name="Group 460" transform="translate(0)">
            <path id="Path_5690" data-name="Path 5690" d="M7.7,506.036V491.7h2.873a4.728,4.728,0,0,1,3.2.894,3.688,3.688,0,0,1,1.011,2.9c0,1.847-.586,2.961-1.774,3.342l2.052,7.2H13.124l-1.891-6.728H9.694v6.728Zm1.994-8.165h.748a2.744,2.744,0,0,0,1.862-.513,2.5,2.5,0,0,0,.557-1.862,2.719,2.719,0,0,0-.484-1.832,2.424,2.424,0,0,0-1.818-.528h-.88l.015,4.735Z" transform="translate(-7.7 -491.7)" fill="#599a43"/>
          </g>
        </g>
        <g id="Group_464" data-name="Group 464" transform="translate(10.759 71.93)">
          <g id="Group_462" data-name="Group 462" transform="translate(0)">
            <path id="Path_5691" data-name="Path 5691" d="M77.314,505.329a4.556,4.556,0,0,1-1.832-.323,2.9,2.9,0,0,1-1.217-.938,4.4,4.4,0,0,1-.66-1.451,8.423,8.423,0,0,1-.205-1.935v-5.424a5.468,5.468,0,0,1,.909-3.4,4.478,4.478,0,0,1,6.01,0,5.356,5.356,0,0,1,.924,3.386v5.438a5.57,5.57,0,0,1-.924,3.445A3.57,3.57,0,0,1,77.314,505.329Zm-.982-1.744a2.329,2.329,0,0,0,.967.176,2.282,2.282,0,0,0,.967-.176,1.269,1.269,0,0,0,.586-.557,2.852,2.852,0,0,0,.279-.821,7.483,7.483,0,0,0,.073-1.1v-6.274a7.418,7.418,0,0,0-.073-1.085,2.309,2.309,0,0,0-.279-.792,1.089,1.089,0,0,0-.586-.528,2.389,2.389,0,0,0-.967-.161,2.559,2.559,0,0,0-.967.161,1.283,1.283,0,0,0-.586.528,2.99,2.99,0,0,0-.279.792,7.27,7.27,0,0,0-.073,1.085v6.274a7.485,7.485,0,0,0,.073,1.1,2.589,2.589,0,0,0,.279.821A1.342,1.342,0,0,0,76.332,503.585Z" transform="translate(-73.4 -490.7)" fill="#185faa"/>
          </g>
          <g id="Group_463" data-name="Group 463" transform="translate(10.496 0.147)">
            <path id="Path_5692" data-name="Path 5692" d="M145,506.036V491.7h1.994v6.758l3.284-6.758h1.862l-2.829,6.318,3.3,8.018h-1.95l-2.873-7.109-.777,1.466v5.644Z" transform="translate(-145 -491.7)" fill="#185faa"/>
          </g>
        </g>
        <g id="Group_466" data-name="Group 466" transform="translate(29.743 72.077)">
          <g id="Group_465" data-name="Group 465" transform="translate(0)">
            <path id="Path_5693" data-name="Path 5693" d="M202.9,506.373v-1.437a5.118,5.118,0,0,0,1.07-.088,1.159,1.159,0,0,0,.616-.337,1.282,1.282,0,0,0,.322-.645,5.517,5.517,0,0,0,.073-1.1V491.7h1.994v11.1a6.974,6.974,0,0,1-.147,1.6,2.7,2.7,0,0,1-.5,1.1,1.937,1.937,0,0,1-.953.66,5.078,5.078,0,0,1-1.539.205l-.938.015Z" transform="translate(-202.9 -491.7)" fill="#f7a81b"/>
          </g>
        </g>
        <g id="Group_471" data-name="Group 471" transform="translate(36.53 71.93)">
          <g id="Group_467" data-name="Group 467" transform="translate(0)">
            <path id="Path_5694" data-name="Path 5694" d="M249.2,549.537V548.1h3.958v1.437Z" transform="translate(-249.2 -539.686)" fill="#599a43"/>
            <path id="Path_5695" data-name="Path 5695" d="M294.979,505.444a3.186,3.186,0,0,1-2.814-1.231,6.388,6.388,0,0,1-.865-3.65v-4.793a12.058,12.058,0,0,1,.1-1.73,5.761,5.761,0,0,1,.366-1.378,2.936,2.936,0,0,1,.689-1.026,3.07,3.07,0,0,1,1.1-.616,5,5,0,0,1,1.568-.22,3.584,3.584,0,0,1,2.858,1.011,4.767,4.767,0,0,1,.88,3.181v.528h-1.876v-.454c0-.41-.015-.733-.029-1a3.979,3.979,0,0,0-.147-.748,1.2,1.2,0,0,0-.308-.542,1.323,1.323,0,0,0-.528-.308,2.533,2.533,0,0,0-.806-.117,2.246,2.246,0,0,0-.66.088,1.85,1.85,0,0,0-.484.22,1.159,1.159,0,0,0-.337.366,2.174,2.174,0,0,0-.205.469,2.572,2.572,0,0,0-.117.586c-.029.234-.044.454-.059.66s-.015.44-.015.733v5.306a5.251,5.251,0,0,0,.4,2.375,1.578,1.578,0,0,0,1.525.718,1.6,1.6,0,0,0,1.539-.777,5.546,5.546,0,0,0,.41-2.492v-1h-1.8v-1.451H299v7.109H297.72l-.191-1.656A2.5,2.5,0,0,1,294.979,505.444Z" transform="translate(-285.129 -490.785)" fill="#599a43"/>
            <path id="Path_5696" data-name="Path 5696" d="M363.314,505.329a4.556,4.556,0,0,1-1.832-.323,2.9,2.9,0,0,1-1.217-.938,4.4,4.4,0,0,1-.66-1.451,8.426,8.426,0,0,1-.205-1.935v-5.424a5.468,5.468,0,0,1,.909-3.4,4.478,4.478,0,0,1,6.01,0,5.356,5.356,0,0,1,.924,3.386v5.438a5.57,5.57,0,0,1-.924,3.445A3.57,3.57,0,0,1,363.314,505.329Zm-.982-1.744a2.376,2.376,0,0,0,.967.176,2.283,2.283,0,0,0,.967-.176,1.269,1.269,0,0,0,.586-.557,2.852,2.852,0,0,0,.279-.821,7.483,7.483,0,0,0,.073-1.1v-6.274a7.418,7.418,0,0,0-.073-1.085,2.309,2.309,0,0,0-.279-.792,1.089,1.089,0,0,0-.586-.528,2.389,2.389,0,0,0-.967-.161,2.558,2.558,0,0,0-.967.161,1.283,1.283,0,0,0-.586.528,2.987,2.987,0,0,0-.279.792,7.267,7.267,0,0,0-.073,1.085v6.274a7.482,7.482,0,0,0,.073,1.1,2.587,2.587,0,0,0,.279.821A1.341,1.341,0,0,0,362.332,503.585Z" transform="translate(-343.246 -490.7)" fill="#599a43"/>
          </g>
          <g id="Group_468" data-name="Group 468" transform="translate(27.045 0.147)">
            <path id="Path_5697" data-name="Path 5697" d="M433.7,506.036V491.7h1.994v12.9h3.65v1.437Z" transform="translate(-433.7 -491.7)" fill="#599a43"/>
            <path id="Path_5698" data-name="Path 5698" d="M485,506.036V491.7h5.526v1.437h-3.533V497.9h2.741v1.422h-2.741v6.714Z" transform="translate(-477.48 -491.7)" fill="#599a43"/>
          </g>
          <g id="Group_469" data-name="Group 469" transform="translate(41.25)">
            <path id="Path_5699" data-name="Path 5699" d="M533.224,506.036V493.18H530.6V491.7h7.139v1.481h-2.521v12.856Z" transform="translate(-530.6 -491.553)" fill="#599a43"/>
            <path id="Path_5700" data-name="Path 5700" d="M592.314,505.329a4.555,4.555,0,0,1-1.832-.323,2.9,2.9,0,0,1-1.217-.938,4.395,4.395,0,0,1-.66-1.451,8.422,8.422,0,0,1-.205-1.935v-5.424a5.468,5.468,0,0,1,.909-3.4,4.478,4.478,0,0,1,6.01,0,5.356,5.356,0,0,1,.924,3.386v5.438a5.57,5.57,0,0,1-.924,3.445A3.551,3.551,0,0,1,592.314,505.329Zm-.968-1.744a2.377,2.377,0,0,0,.968.176,2.283,2.283,0,0,0,.967-.176,1.269,1.269,0,0,0,.586-.557,2.854,2.854,0,0,0,.278-.821,7.488,7.488,0,0,0,.073-1.1v-6.274a7.423,7.423,0,0,0-.073-1.085,2.31,2.31,0,0,0-.278-.792,1.089,1.089,0,0,0-.586-.528,2.389,2.389,0,0,0-.967-.161,2.559,2.559,0,0,0-.968.161,1.214,1.214,0,0,0-.586.528,2.989,2.989,0,0,0-.279.792,7.254,7.254,0,0,0-.073,1.085v6.274a7.469,7.469,0,0,0,.073,1.1,2.587,2.587,0,0,0,.279.821A1.2,1.2,0,0,0,591.346,503.585Z" transform="translate(-579.927 -490.7)" fill="#599a43"/>
            <path id="Path_5701" data-name="Path 5701" d="M663.309,505.948a5.561,5.561,0,0,1-3.2,0,3.074,3.074,0,0,1-1.1-.645,2.972,2.972,0,0,1-.674-1.055,5.178,5.178,0,0,1-.352-1.363,14.138,14.138,0,0,1-.088-1.686v-9.5h1.906v9.6c0,.41.015.762.029,1.07a5.158,5.158,0,0,0,.161.909,2.124,2.124,0,0,0,.323.733,1.436,1.436,0,0,0,.557.454,1.87,1.87,0,0,0,.85.176,1.913,1.913,0,0,0,.85-.176,1.436,1.436,0,0,0,.557-.454,2.125,2.125,0,0,0,.323-.733,6.352,6.352,0,0,0,.161-.894c.029-.293.029-.66.029-1.07v-9.6h1.906v9.5a14.152,14.152,0,0,1-.088,1.686,5.177,5.177,0,0,1-.352,1.363,3.186,3.186,0,0,1-.674,1.055A3.82,3.82,0,0,1,663.309,505.948Z" transform="translate(-639.24 -491.553)" fill="#599a43"/>
          </g>
          <g id="Group_470" data-name="Group 470" transform="translate(70.728 0.147)">
            <path id="Path_5702" data-name="Path 5702" d="M731.7,506.036V491.7h2.873a4.728,4.728,0,0,1,3.2.894,3.687,3.687,0,0,1,1.012,2.9c0,1.847-.586,2.961-1.774,3.342l2.052,7.2h-1.935l-1.891-6.728h-1.554v6.728Zm2.008-8.165h.748a2.745,2.745,0,0,0,1.862-.513,2.5,2.5,0,0,0,.557-1.862,2.719,2.719,0,0,0-.484-1.832,2.424,2.424,0,0,0-1.818-.528h-.88l.015,4.735Z" transform="translate(-731.7 -491.7)" fill="#599a43"/>
          </g>
        </g>
        <g id="Group_475" data-name="Group 475" transform="translate(116.889 74.041)">
          <g id="Group_472" data-name="Group 472" transform="translate(0 10.569)">
            <path id="Path_5703" data-name="Path 5703" d="M797.4,579v-1.8h1.627V579Z" transform="translate(-797.4 -577.2)" fill="#185faa"/>
          </g>
          <g id="Group_473" data-name="Group 473" transform="translate(3.445)">
            <path id="Path_5704" data-name="Path 5704" d="M824.2,517.6a4.2,4.2,0,0,1-1.349-.205,2.455,2.455,0,0,1-.938-.557,2.747,2.747,0,0,1-.6-.88,4.067,4.067,0,0,1-.323-1.114,8.837,8.837,0,0,1-.088-1.3V509.2a9.968,9.968,0,0,1,.088-1.393,4.577,4.577,0,0,1,.323-1.129,2.344,2.344,0,0,1,.6-.865,2.528,2.528,0,0,1,.938-.528,4.127,4.127,0,0,1,1.334-.191,2.833,2.833,0,0,1,2.375.894,4.132,4.132,0,0,1,.718,2.639v.982h-1.627v-1.3c0-.1-.015-.235-.015-.4a1.919,1.919,0,0,0-.044-.366c-.015-.088-.044-.191-.073-.308a1,1,0,0,0-.117-.279,2.23,2.23,0,0,0-.191-.22.96.96,0,0,0-.249-.176,1.024,1.024,0,0,0-.337-.088,1.991,1.991,0,0,0-.425-.044,2.529,2.529,0,0,0-.616.073,1.08,1.08,0,0,0-.44.249,1.619,1.619,0,0,0-.279.366,1.511,1.511,0,0,0-.161.513c-.029.205-.059.41-.073.6s-.015.44-.015.718v4.867a3.722,3.722,0,0,0,.352,1.92,1.344,1.344,0,0,0,1.231.542,2.286,2.286,0,0,0,.586-.073.843.843,0,0,0,.41-.249,1.727,1.727,0,0,0,.249-.352,1.687,1.687,0,0,0,.147-.5c.029-.205.044-.41.059-.586s.015-.41.015-.7v-.909h1.627v.909a8.091,8.091,0,0,1-.088,1.261,4.078,4.078,0,0,1-.308,1.041,2.72,2.72,0,0,1-.557.806,2.3,2.3,0,0,1-.894.5A3.929,3.929,0,0,1,824.2,517.6Z" transform="translate(-820.9 -505.1)" fill="#185faa"/>
          </g>
          <g id="Group_474" data-name="Group 474" transform="translate(12.093 0.088)">
            <path id="Path_5705" data-name="Path 5705" d="M879.9,517.984V505.7h1.715v5.306h3.152V505.7h1.715v12.284h-1.715v-5.761h-3.152v5.761Z" transform="translate(-879.9 -505.7)" fill="#185faa"/>
          </g>
        </g>
      </g>
    </g>
  </g>
</svg>
